<?xml version="1.0" encoding="UTF-8" standalone="no"?>
<!DOCTYPE svg PUBLIC "-//W3C//DTD SVG 1.1//EN" "http://www.w3.org/Graphics/SVG/1.1/DTD/svg11.dtd">
<svg width="100%" height="100%" viewBox="0 0 828 1792" version="1.1" xmlns="http://www.w3.org/2000/svg" xmlns:xlink="http://www.w3.org/1999/xlink" xml:space="preserve" xmlns:serif="http://www.serif.com/" style="fill-rule:evenodd;clip-rule:evenodd;stroke-linecap:round;stroke-linejoin:round;stroke-miterlimit:1.5;">
    <g>
        <clipPath id="_clip1">
            <rect x="0" y="0" width="828" height="1792"/>
        </clipPath>
        <g clip-path="url(#_clip1)">
            <g transform="matrix(2.63978,0,0,6.23394,-394.839,-2593.98)">
                <rect x="149.573" y="416.107" width="313.663" height="287.459" style="fill:rgb(187,187,187);"/>
            </g>
            <g id="pokeball" transform="matrix(0.378055,-0.21827,0.21827,0.378055,-54.6783,1259.75)">
                <g transform="matrix(1.03128,0,0,1.03128,13.0597,-45.0445)">
                    <circle cx="1228.51" cy="741.839" r="698.161" style="fill:rgb(223,223,223);stroke:rgb(87,87,87);stroke-width:41.65px;"/>
                </g>
                <g transform="matrix(1.03128,0,0,1.03128,13.0597,-45.0445)">
                    <circle cx="1228.51" cy="741.839" r="698.161" style="fill:rgb(223,223,223);stroke:rgb(87,87,87);stroke-width:41.65px;"/>
                </g>
                <g transform="matrix(-1,-1.22465e-16,1.22465e-16,-1,2560,1440)">
                    <path d="M560,720C560,490.161 2000,490.161 2000,720C2000,1236.39 1520,1440 1280,1440C1021.25,1440 560,1234.48 560,720Z" style="fill:rgb(255,93,78);stroke:rgb(87,87,87);stroke-width:42.95px;"/>
                </g>
                <path d="M560.24,701.25C565.193,701.25 798.455,838.409 1280,838.409C1785.57,838.409 1987.74,701.25 1999.76,701.25C2002.33,701.25 1992.11,836.589 1990.29,838.409C1919.61,909.089 1560.51,958.748 1280,958.748C1043.24,958.748 659.798,928.499 569.708,838.409C565.583,834.284 558.343,701.25 560.24,701.25Z" style="fill:rgb(87,87,87);stroke:rgb(87,87,87);stroke-width:42.95px;"/>
                <g transform="matrix(1.20985,0,0,1.20985,-322.995,-195.924)">
                    <circle cx="1324.96" cy="898.711" r="157.152" style="fill:rgb(223,223,223);stroke:rgb(87,87,87);stroke-width:35.5px;"/>
                </g>
                <g transform="matrix(0.682661,0,0,0.682661,375.503,277.864)">
                    <circle cx="1324.96" cy="898.711" r="157.152" style="fill:rgb(223,223,223);stroke:rgb(87,87,87);stroke-width:62.92px;"/>
                </g>
            </g>
            <g transform="matrix(2.34588,0,0,2.34588,554.8,938.254)">
                <g transform="matrix(1,0,0,1,-236.5,-250)">
                    <g transform="matrix(1,0,0,1,-12.4992,-0.537293)">
                        <g id="leaves">
                            <path d="M19.961,1.057C21.095,2.19 60.815,25.495 62.391,65.803C63.185,86.1 64.01,108.154 62.391,126.8C61.651,135.327 62.245,147.624 69.121,157.656C87.881,185.028 102.841,193.945 114.306,202.336C115.112,202.925 126.018,208.001 137.913,208.001C138.701,208.001 155.071,174.359 155.132,173.574C156.024,161.985 150.515,122.311 137.913,101.095C130.812,89.142 117.433,70.786 105.632,53.41C96.076,39.341 87.924,25.728 82.065,18.146C77.611,12.382 65.799,9.166 62.391,8.632C51.785,6.969 19.547,0.643 19.961,1.057Z" style="fill:rgb(140,196,71);stroke:black;stroke-width:1px;"/>
                            <path d="M273.384,21.387C273.099,21.387 264.66,24.907 254.102,26.888C247.989,28.035 236.418,28.865 231.417,30.17C212.507,35.104 190.967,39.017 168.133,60.786C156.17,72.192 147.575,85.731 138.85,100.805C138.529,101.36 155.206,142.743 155.206,172.128C155.206,172.984 177.517,138.283 189.167,123.989C206.336,102.924 231.054,92.159 231.417,91.377C239.05,74.892 249.572,61.489 260.832,48.738C271.779,36.343 273.878,21.387 273.384,21.387Z" style="fill:rgb(140,196,71);stroke:black;stroke-width:1px;"/>
                            <path d="M412.956,123.989C413.437,123.989 426.542,93.077 425.416,56.473C425.233,50.532 417.732,44.24 412.956,43.092C408.39,41.995 370.389,44.832 323.411,56.473C286.585,65.598 249.982,83.555 230.336,91.591C214.136,98.216 195.783,115.185 177.656,139.329C162.747,159.185 137.814,207.36 137.814,208.358C137.814,208.483 147.674,211.099 157.392,214.808C167.521,218.674 177.526,223.637 177.656,223.62C204.047,220.146 283.437,203.292 296.163,187.51C321.537,156.044 369.673,92.177 401.428,74.952C403.878,73.623 412.475,123.989 412.956,123.989Z" style="fill:rgb(140,196,71);stroke:black;stroke-width:1px;"/>
                            <path d="M484.724,177.069C478.618,170.92 446.213,147.982 412.956,138.035C390.203,131.23 343.27,129.804 342.054,131.019C327.723,145.35 299.709,182.588 299.874,182.753C299.967,182.846 320.438,175.432 342.054,172.144C358.689,169.613 376.003,170.744 385.228,172.144C391.508,173.097 413.805,187.521 416.624,187.521C419.444,187.521 436.272,176.974 449.595,174.927C460.945,173.184 485.188,177.536 484.724,177.069Z" style="fill:rgb(140,196,71);stroke:black;stroke-width:1px;"/>
                            <path d="M477.4,239.929C477.911,239.418 465.79,210.606 444.045,198.14C441.311,196.573 431.204,194.583 416.624,187.521C404.31,181.557 392.176,174.18 385.393,172.287C370.206,168.049 352.116,171.11 337.962,172.816C324.872,174.393 312.106,177.554 300.46,182.45C299.462,182.87 295.327,193.703 268.085,202.194C258.318,205.238 238.046,211.558 219.076,215.819C198.312,220.483 178.162,223.113 177.655,223.621C177.148,224.128 194.507,236.415 201.971,240.812C205.217,242.724 218.884,248.754 222.44,250C236.958,255.086 268.762,267.322 289.078,271.328C307.173,274.896 326.583,279.014 344.341,274.035C367.778,267.464 407.519,237.583 429.696,231.899C445.316,227.895 476.889,240.44 477.4,239.929Z" style="fill:rgb(140,196,71);stroke:black;stroke-width:1px;"/>
                        </g>
                        <g id="leavesShadows">
                            <path d="M298.627,185.555C384.196,190.072 319.3,260.776 281.62,269.13C281.515,269.153 276.353,267.846 269.379,265.687C261.968,263.392 252.483,260.154 243.899,257.197C232.197,253.166 222.333,249.403 222.191,249.34C222.002,249.256 217.653,245.346 212.424,241.355C208.129,238.076 202.793,235.253 199.7,233.288C193.694,229.472 180.22,223.558 181.475,223.366C196.376,221.096 228.847,214.318 256.148,206.351C259.263,205.442 261.4,204.791 263.492,204.149C264.562,203.82 265.645,203.509 266.791,203.134C277.514,199.619 283.822,196.545 287.972,194.174C292.434,191.623 294.333,189.885 296.047,188.286C297.844,186.609 298.546,185.551 298.627,185.555Z" style="fill:rgb(100,153,73);"/>
                            <path d="M334.972,139.329C349.904,136.342 364.472,154.735 361.96,169.753C361.929,169.937 343.487,170.995 329.195,173.619C312.821,176.625 301.606,181.732 301.467,181.573C301.205,181.273 333.441,139.635 334.972,139.329Z" style="fill:rgb(100,153,73);"/>
                            <path d="M208.635,106.219C240.707,92.866 329.022,91.335 256.233,205.19C255.826,205.826 241.888,209.913 225.975,213.776C205.884,218.652 182.527,222.909 179.792,222.771C179.148,222.739 167.701,217.848 156.778,213.634C147.529,210.065 139.016,207.464 139.016,206.918C139.016,206.372 150.777,182.632 165.837,158.177C167.804,154.982 169.695,151.665 171.852,148.414C175.344,143.153 179.231,137.988 183.014,133.214C194.66,118.518 206.201,107.232 208.635,106.219Z" style="fill:rgb(100,153,73);"/>
                            <path d="M139.412,100.869C143.567,96.714 202.513,65.33 205.181,107.589C205.206,107.989 191.786,119.835 180.287,134.935C167.322,151.958 155.999,173.903 155.68,173.584C155.56,173.464 155.566,170.692 155.196,166.331C154.625,159.583 153.353,149.023 150.861,138.528C146.476,120.061 139.087,101.194 139.412,100.869Z" style="fill:rgb(100,153,73);"/>
                            <path d="M80.116,171.353C79.87,170.863 77.211,139.875 83.53,108.085C89.069,80.221 115.35,76.252 137.552,101.24C137.816,101.538 138.892,103.246 140.143,106.315C141.767,110.297 143.97,117.101 146.477,125.534C148.729,133.112 151.304,142.016 152.596,151.167C153.578,158.119 155.538,166.64 154.625,173.517C154.438,174.929 153.821,176.209 153.391,177.46C153.056,178.436 140.642,200.802 139.723,203.367C139.643,203.59 137.789,207.102 137.552,207.096C136.727,207.073 130.246,204.715 123.905,203.367C119.05,202.335 114.529,202.552 114.327,202.351C113.833,201.856 106.632,196.694 99.137,190.461C90.859,183.578 82.151,175.414 80.116,171.353Z" style="fill:rgb(100,153,73);"/>
                        </g>
                        <g id="body">
                            <path id="body1" serif:id="body" d="M114.306,202.336C92.739,205.323 62.645,217.27 45.761,232.221C28.877,247.171 13.151,266.363 13,292.039C12.82,322.63 44.073,363.971 73.672,378.313C78.662,380.731 83.243,383.036 87.577,385.189C101.06,391.89 112.148,397.117 125.721,399.682C143.656,403.071 168.533,401.922 181.28,398.649C218.589,389.068 235.893,367.062 241.642,341.997C249.914,305.939 235.876,266.872 221.831,249.777C204.527,228.716 127.494,200.509 114.306,202.336Z" style="fill:rgb(90,144,204);stroke:black;stroke-width:1px;"/>
                            <path d="M204.04,235.828C203.56,237.635 220.851,293.746 197.839,331.829C181.491,358.884 160.889,361.646 125.177,357.589C102.836,355.05 69.255,336.157 52.33,331.829C46.845,330.426 38.82,330.001 35.344,331.829C33.33,332.889 29.422,337.925 29.785,338.694C33.386,346.303 55.857,368.329 68.683,375.068C85.673,383.996 101.818,393.66 124.398,399.035C144.168,403.742 182.496,399.212 192.175,395.329C221.398,383.606 238.114,362.182 241.959,338.694C250.195,288.383 225.165,252.597 220.996,248.427C220.9,248.331 216.906,244.611 213.588,242.216C209.94,239.583 204.083,235.667 204.04,235.828Z" style="fill:rgb(44,91,161);"/>
                        </g>
                        <g id="leftFoot">
                            <path id="leftFoot1" serif:id="leftFoot" d="M73.797,379.425C68.253,379.425 53.838,401.506 51.876,409.799C48.378,424.579 42.291,448.616 52.659,468.068C57.616,477.369 75.142,478.838 84.113,471.286C97.666,459.877 105.83,444.364 110.688,428.836C111.408,426.534 113.792,399.977 110.688,396.109C110.358,395.698 100.644,391.12 91.55,387.152C82.623,383.257 74.316,379.425 73.797,379.425Z" style="fill:rgb(90,144,204);stroke:black;stroke-width:1px;"/>
                            <path d="M52.546,409.956C52.549,410.585 65.958,410.736 75.029,419.808C92.431,437.21 91.321,463.6 91.777,463.102C100.939,453.086 107.937,440.028 110.203,428.642C112.2,418.61 112.443,404.495 110.649,396.076C110.623,395.951 101.126,392.089 91.777,387.823C83.044,383.838 74.44,379.425 73.797,379.425C68.482,379.425 52.527,404.101 52.546,409.956Z" style="fill:rgb(44,91,161);"/>
                        </g>
                        <g id="rightFoot">
                            <path id="rightFoot1" serif:id="rightFoot" d="M181.28,398.649C187.751,405.12 193,426.575 192.067,441.167C191.099,456.308 184.801,481.925 175.472,489.495C158.187,503.521 147.891,502.578 137.096,487.796C130.345,478.551 128.849,455.797 131.086,437.076C132.669,423.84 141.11,403.711 143.902,401.573C144.388,401.201 154.412,401.37 163.202,400.636C172.607,399.85 180.817,398.186 181.28,398.649Z" style="fill:rgb(90,144,204);stroke:black;stroke-width:1px;"/>
                            <path d="M143.902,401.573C141.016,404.459 137.054,415.294 134.437,424.278C132.617,430.526 131.541,435.86 131.541,437.082C131.541,437.334 152.386,435.787 162.524,450.392C172.029,464.087 176.408,488.031 176.802,487.656C184.508,480.336 192.666,452.182 191.564,433.743C190.524,416.354 184.471,402.242 180.798,398.569C180.624,398.394 170.671,400.461 161.147,401.251C152.424,401.975 144.062,401.413 143.902,401.573Z" style="fill:rgb(44,91,161);"/>
                        </g>
                        <g id="mouth">
                            <path id="mouth1" serif:id="mouth" d="M99.898,272.503C99.966,272.402 105.391,275.526 112.242,277.379C119.039,279.218 127.281,279.801 127.321,279.915C128.718,283.883 124.066,297.527 119.088,307.328C117.645,310.169 115.929,312.425 114.629,314.353C109.474,321.996 98.421,321.429 97.187,310.622C96.551,305.045 99.697,272.8 99.898,272.503Z" style="fill:rgb(66,0,0);stroke:black;stroke-width:1px;"/>
                            <path id="tongue" d="M108.549,276.758C109.31,276.645 113.228,277.811 117.308,278.507C122.192,279.341 127.295,279.755 127.321,279.915C128.335,286.181 119.766,309.349 114.629,314.353C109.759,319.097 101.729,323.809 97.187,310.622C96.684,309.16 98.687,288.009 99.179,286.543C100.615,282.261 105.971,277.138 108.549,276.758Z" style="fill:rgb(255,126,184);stroke:black;stroke-width:1px;"/>
                        </g>
                        <g id="leftEye">
                            <path id="leftEye1" serif:id="leftEye" d="M83.34,242.426C78.583,242.445 76.299,246.777 76.371,250C76.427,252.503 77.452,257.027 83.34,257.449C86.405,257.668 90.299,254.755 90.386,250C90.432,247.497 88.789,242.404 83.34,242.426Z" style="fill:rgb(210,80,108);stroke:black;stroke-width:1px;"/>
                            <g id="leftEye2" serif:id="leftEye" transform="matrix(0.839657,0,0,0.734578,13.7395,64.8938)">
                                <path d="M83.34,242.426C78.583,242.445 76.299,246.777 76.371,250C76.427,252.503 77.452,257.027 83.34,257.449C86.405,257.668 90.299,254.755 90.386,250C90.432,247.497 88.789,242.404 83.34,242.426Z" style="fill:rgb(223,223,223);"/>
                            </g>
                        </g>
                        <g id="rightEye">
                            <path id="rightEye1" serif:id="rightEye" d="M163.007,267.935C158.288,267.744 155.452,271.385 155.132,274.887C154.863,277.833 157.051,282.745 161.577,282.79C165.946,282.833 168.653,280.376 169.262,276.758C169.892,273.021 168.371,268.153 163.007,267.935Z" style="fill:rgb(210,80,108);stroke:black;stroke-width:1px;"/>
                            <g id="rightEye2" serif:id="rightEye" transform="matrix(0.868073,0,0,0.793435,21.5483,55.7592)">
                                <path d="M163.007,267.935C158.288,267.744 155.452,271.385 155.132,274.887C154.863,277.833 157.051,282.745 161.577,282.79C165.946,282.833 168.653,280.376 169.262,276.758C169.892,273.021 168.371,268.153 163.007,267.935Z" style="fill:rgb(223,223,223);"/>
                            </g>
                        </g>
                        <g id="leavesDetails">
                            <path d="M199.7,233.288C226.772,223.595 267.472,207.127 324.356,202.251C338.734,201.019 370.525,206.62 424.541,208.187C432.362,208.413 445.526,217.627 452.107,222.234" style="fill:none;stroke:black;stroke-width:1px;"/>
                            <path d="M307.89,172.079C336.437,163.432 403.8,144.87 453.055,164.727" style="fill:none;stroke:black;stroke-width:1px;"/>
                            <path d="M154.001,212.596C225.787,123.336 293.849,81.017 389.865,56.417" style="fill:none;stroke:black;stroke-width:1px;"/>
                            <path d="M153.406,152.813C174.783,101.119 208.002,50.255 256.121,35.463" style="fill:none;stroke:black;stroke-width:1px;"/>
                            <path d="M138.247,207.222C138.598,206.35 139.3,204.604 139.328,203.224C139.582,190.886 114.041,77.745 56.332,15.129" style="fill:none;stroke:black;stroke-width:1px;"/>
                        </g>
                    </g>
                </g>
            </g>
            <g transform="matrix(0.59326,0,0,0.59326,-21.8375,273.239)">
                <path d="M79.464,-84.627C86.672,-87.01 93.448,-89.214 99.792,-91.239C106.136,-93.265 112.822,-95.186 119.851,-97.003C126.881,-98.819 133.612,-100.264 140.045,-101.336C144.99,-102.17 150.053,-102.587 155.235,-102.587C163.873,-102.587 169.532,-102.349 172.213,-101.872C176.263,-101.098 180.091,-99.847 183.695,-98.12C187.298,-96.392 190.515,-94.084 193.345,-91.195C196.174,-88.306 198.483,-84.895 200.27,-80.964C200.984,-79.355 201.342,-77.658 201.342,-75.871C201.342,-69.199 197.693,-60.978 190.396,-51.209C183.099,-41.44 175.772,-32.921 168.415,-25.654C161.058,-18.386 155.563,-13.174 151.929,-10.017L168.013,46.365L144.602,63.253L103.589,-53.89C103.47,-53.89 102.904,-53.324 101.891,-52.192C100.879,-51.06 99.553,-49.586 97.915,-47.769C96.277,-45.952 95.249,-44.835 94.833,-44.418C94.654,-44.418 94.073,-45.699 93.09,-48.26C92.107,-50.822 90.797,-54.381 89.159,-58.938C87.52,-63.495 85.674,-68.558 83.619,-74.128C81.564,-79.698 80.179,-83.197 79.464,-84.627ZM137.275,-59.787L144.602,-33.428C148.296,-37.18 152.883,-42.303 158.363,-48.796C163.843,-55.289 166.583,-59.995 166.583,-62.914C166.583,-64.046 166.107,-64.701 165.154,-64.88C162.473,-65.476 159.822,-65.774 157.201,-65.774C149.338,-65.774 142.696,-63.778 137.275,-59.787Z" style="fill:rgb(255,202,57);fill-rule:nonzero;stroke:rgb(42,87,147);stroke-width:10.54px;stroke-linecap:butt;stroke-miterlimit:2;"/>
                <path d="M268.446,-39.414C272.676,-37.151 276.116,-34.098 278.767,-30.256C281.418,-26.413 283.354,-22.095 284.575,-17.299C285.796,-12.504 286.406,-7.515 286.406,-2.333C286.406,1.956 286.064,6.096 285.379,10.088C284.694,14.079 283.756,17.742 282.564,21.078C281.373,24.414 279.973,27.243 278.365,29.567C274.612,35.166 270.591,39.991 266.302,44.042C262.013,48.093 257.635,51.354 253.167,53.826C248.699,56.298 244.276,58.115 239.898,59.277C235.52,60.438 231.186,61.019 226.897,61.019C221.834,61.019 217.023,60.23 212.466,58.651C207.909,57.073 204.022,55.003 200.806,52.441C195.504,48.033 191.364,42.091 188.386,34.615C185.407,27.139 183.918,19.231 183.918,10.892C183.918,-3.464 188.058,-15.051 196.338,-23.867C203.427,-31.432 210.754,-37.136 218.319,-40.978C225.884,-44.82 233.628,-46.741 241.551,-46.741C246.197,-46.741 250.665,-46.16 254.954,-44.999C259.243,-43.837 263.74,-41.976 268.446,-39.414ZM263.175,-24.403C262.162,-19.876 259.973,-15.885 256.607,-12.43C253.241,-8.975 249.95,-7.247 246.733,-7.247C245.125,-7.247 243.695,-7.664 242.445,-8.498C240.657,-9.928 239.764,-12.43 239.764,-16.004C239.764,-18.744 240.672,-21.454 242.489,-24.135C244.306,-26.815 247.18,-28.93 251.112,-30.479C247.18,-30.479 243.383,-29.734 239.719,-28.245C236.056,-26.756 232.913,-24.835 230.292,-22.482C227.671,-20.129 225.572,-17.478 223.993,-14.529C222.414,-11.581 221.625,-8.617 221.625,-5.639C221.625,-0.099 224.187,4.309 229.31,7.586C234.075,10.624 238.602,12.143 242.891,12.143C247.121,12.143 250.874,10.728 254.15,7.898C257.426,5.069 259.928,1.435 261.656,-3.003C263.383,-7.441 264.247,-11.834 264.247,-16.182C264.247,-19.161 263.889,-21.901 263.175,-24.403Z" style="fill:rgb(255,202,57);fill-rule:nonzero;stroke:rgb(42,87,147);stroke-width:10.54px;stroke-linecap:butt;stroke-miterlimit:2;"/>
                <path d="M271.574,-91.954L316.965,-110.986L323.578,-7.783L360.927,-28.245L399.707,-22.437L349.133,16.342L396.758,52.262L398.903,88.093L328.671,37.608L330.904,81.481L288.372,82.285L280.33,-72.922L267.195,-69.973L271.574,-91.954Z" style="fill:rgb(255,202,57);fill-rule:nonzero;stroke:rgb(42,87,147);stroke-width:10.54px;stroke-linecap:butt;stroke-miterlimit:2;"/>
                <path d="M461.897,7.943L483.431,33.945C481.703,38.949 477.608,43.536 471.145,47.705C464.682,51.875 456.997,55.166 448.092,57.579C439.186,59.992 430.295,61.198 421.42,61.198C413.556,61.198 406.542,60.155 400.377,58.07C394.211,55.986 389.461,52.828 386.125,48.599C380.347,41.332 377.458,32.039 377.458,20.721C377.458,11.785 379.081,2.984 382.327,-5.683C385.574,-14.351 389.014,-20.412 392.648,-23.867C396.996,-27.977 401.717,-31.402 406.81,-34.142C411.903,-36.883 417.19,-38.938 422.671,-40.308C428.151,-41.678 433.78,-42.363 439.558,-42.363C447.124,-42.363 454.317,-41.157 461.137,-38.744C467.958,-36.332 473.93,-32.832 479.053,-28.245L429.998,30.281C434.346,30.281 438.471,29.373 442.373,27.556C446.275,25.739 449.864,23.148 453.14,19.782C456.416,16.417 459.335,12.47 461.897,7.943ZM437.146,-12.876C434.227,-14.365 431.248,-15.11 428.21,-15.11C424.994,-15.11 421.881,-14.455 418.873,-13.144C415.865,-11.834 413.735,-10.285 412.484,-8.498C408.791,-3.732 406.944,1.51 406.944,7.228C406.944,9.313 407.153,11.309 407.57,13.215C407.987,15.121 408.702,17.742 409.714,21.078L437.146,-12.876ZM391.218,-77.3L438.844,-103.659L459.305,-72.207L401.494,-61.217L391.218,-77.3Z" style="fill:rgb(255,202,57);fill-rule:nonzero;stroke:rgb(42,87,147);stroke-width:10.54px;stroke-linecap:butt;stroke-miterlimit:2;"/>
                <path d="M511.309,55.747L511.309,58.785L471.011,61.019L472.44,-72.922L459.305,-69.973L463.684,-91.954L509.075,-110.986L509.79,-47.903C516.522,-50.703 523.044,-52.102 529.359,-52.102C538.115,-52.102 547.14,-49.601 556.433,-44.597C562.628,-41.261 567.17,-36.272 570.059,-29.63C572.948,-22.988 574.393,-15.587 574.393,-7.426C574.393,-3.137 574.05,0.988 573.365,4.95C572.68,8.911 571.742,12.56 570.551,15.896C569.359,19.231 567.959,22.061 566.351,24.384C561.347,31.771 555.941,37.817 550.133,42.523C544.325,47.229 538.473,50.639 532.575,52.754C526.678,54.869 520.811,55.926 514.973,55.926C514.377,55.866 513.826,55.822 513.32,55.792C512.813,55.762 512.143,55.747 511.309,55.747ZM510.326,-15.646L510.505,-6.175C511.518,-2.72 513.781,0.169 517.296,2.493C522.181,5.531 526.708,7.05 530.878,7.05C535.107,7.05 538.86,5.635 542.136,2.805C545.413,-0.024 547.914,-3.658 549.642,-8.096C551.369,-12.534 552.233,-16.957 552.233,-21.365C552.233,-24.224 551.876,-26.964 551.161,-29.585C550.089,-24.999 547.885,-20.978 544.549,-17.523C541.213,-14.068 537.937,-12.34 534.72,-12.34C533.052,-12.34 531.652,-12.787 530.52,-13.68C528.674,-14.991 527.75,-17.493 527.75,-21.186C527.75,-23.986 528.629,-26.696 530.386,-29.317C532.144,-31.938 535.047,-34.023 539.098,-35.572C534.571,-35.572 530.282,-34.649 526.231,-32.802C522.181,-30.955 518.77,-28.498 516,-25.43C513.23,-22.363 511.339,-19.101 510.326,-15.646Z" style="fill:rgb(255,202,57);fill-rule:nonzero;stroke:rgb(42,87,147);stroke-width:10.54px;stroke-linecap:butt;stroke-miterlimit:2;"/>
                <path d="M626.397,-30.122C623.12,-29.705 619.889,-28.662 616.702,-26.994C613.515,-25.326 610.789,-23.36 608.526,-21.097C606.262,-18.833 604.49,-16.346 603.209,-13.636C601.929,-10.925 601.288,-8.26 601.288,-5.639C601.288,-0.218 603.85,4.19 608.973,7.586C613.5,10.624 618.087,12.143 622.733,12.143C623.627,12.143 624.848,12.024 626.397,11.785L626.397,-7.247C624.788,-7.247 623.359,-7.664 622.108,-8.498C620.321,-9.928 619.427,-12.668 619.427,-16.718C619.427,-22.556 621.75,-27.024 626.397,-30.122ZM627.111,-45.848L664.461,-62.646L665.176,-12.698C665.653,-9.6 665.891,-6.085 665.891,-2.154C665.891,1.301 665.772,3.863 665.533,5.531L666.606,60.304L626.397,62.449L626.397,56.998C619.844,59.679 613.232,61.019 606.56,61.019C601.437,61.019 596.627,60.245 592.129,58.696C587.632,57.147 583.745,55.062 580.469,52.441C575.167,48.033 571.027,42.091 568.049,34.615C565.07,27.139 563.581,19.231 563.581,10.892C563.581,-3.464 567.721,-15.051 576.001,-23.867C583.149,-31.372 590.521,-37.061 598.116,-40.933C605.711,-44.805 613.47,-46.741 621.393,-46.741C623.597,-46.741 625.265,-46.682 626.397,-46.563L627.111,-45.848Z" style="fill:rgb(255,202,57);fill-rule:nonzero;stroke:rgb(42,87,147);stroke-width:10.54px;stroke-linecap:butt;stroke-miterlimit:2;"/>
                <path d="M675.362,-99.281L714.41,-116.884L713.784,-56.838L742.914,-56.123L742.914,-21.722L712.712,-21.365C711.64,-12.906 711.104,-4.954 711.104,2.493C711.104,8.688 711.461,13.811 712.176,17.861C712.772,21.197 714.261,23.759 716.644,25.546C719.026,27.333 721.796,28.226 724.954,28.226C728.468,28.226 731.551,27.184 734.202,25.099C736.852,23.014 738.178,20.155 738.178,16.521C738.178,15.985 738.059,14.942 737.82,13.394L767.039,-5.639C768.29,-3.315 769.854,0.586 771.73,6.067C773.606,11.547 774.545,17.534 774.545,24.027C774.545,31.83 772.49,38.889 768.379,45.204C764.269,51.518 757.24,56.313 747.292,59.589C740.322,61.853 733.74,62.985 727.545,62.985C718.192,62.985 709.957,60.93 702.839,56.819C695.72,52.709 689.808,47.765 685.102,41.987C682.898,39.306 681.185,34.868 679.964,28.673C678.743,22.478 677.954,16.015 677.596,9.283C677.239,2.552 677.06,-4.179 677.06,-10.91L677.06,-21.007L650.701,-20.203L644.089,-60.502L677.417,-58.268L675.362,-99.281Z" style="fill:rgb(255,202,57);fill-rule:nonzero;stroke:rgb(42,87,147);stroke-width:10.54px;stroke-linecap:butt;stroke-miterlimit:2;"/>
                <path d="M789.735,-99.281L828.782,-116.884L828.157,-56.838L857.286,-56.123L857.286,-21.722L827.085,-21.365C826.012,-12.906 825.476,-4.954 825.476,2.493C825.476,8.688 825.834,13.811 826.548,17.861C827.144,21.197 828.633,23.759 831.016,25.546C833.399,27.333 836.169,28.226 839.326,28.226C842.841,28.226 845.923,27.184 848.574,25.099C851.225,23.014 852.55,20.155 852.55,16.521C852.55,15.985 852.431,14.942 852.193,13.394L881.412,-5.639C882.662,-3.315 884.226,0.586 886.103,6.067C887.979,11.547 888.917,17.534 888.917,24.027C888.917,31.83 886.862,38.889 882.752,45.204C878.642,51.518 871.612,56.313 861.664,59.589C854.695,61.853 848.112,62.985 841.917,62.985C832.565,62.985 824.33,60.93 817.211,56.819C810.093,52.709 804.18,47.765 799.474,41.987C797.27,39.306 795.558,34.868 794.337,28.673C793.115,22.478 792.326,16.015 791.969,9.283C791.611,2.552 791.433,-4.179 791.433,-10.91L791.433,-21.007L765.073,-20.203L758.461,-60.502L791.79,-58.268L789.735,-99.281Z" style="fill:rgb(255,202,57);fill-rule:nonzero;stroke:rgb(42,87,147);stroke-width:10.54px;stroke-linecap:butt;stroke-miterlimit:2;"/>
                <path d="M937.079,80.051L896.78,82.285L888.738,-72.922L875.604,-69.973L879.982,-91.954L925.373,-110.986L937.079,80.051Z" style="fill:rgb(255,202,57);fill-rule:nonzero;stroke:rgb(42,87,147);stroke-width:10.54px;stroke-linecap:butt;stroke-miterlimit:2;"/>
                <path d="M1015.44,7.943L1036.98,33.945C1035.25,38.949 1031.15,43.536 1024.69,47.705C1018.23,51.875 1010.54,55.166 1001.64,57.579C992.731,59.992 983.84,61.198 974.965,61.198C967.102,61.198 960.087,60.155 953.922,58.07C947.756,55.986 943.006,52.828 939.67,48.599C933.892,41.332 931.003,32.039 931.003,20.721C931.003,11.785 932.626,2.984 935.872,-5.683C939.119,-14.351 942.559,-20.412 946.193,-23.867C950.541,-27.977 955.262,-31.402 960.355,-34.142C965.448,-36.883 970.735,-38.938 976.216,-40.308C981.696,-41.678 987.325,-42.363 993.103,-42.363C1000.67,-42.363 1007.86,-41.157 1014.68,-38.744C1021.5,-36.332 1027.47,-32.832 1032.6,-28.245L983.543,30.281C987.891,30.281 992.016,29.373 995.918,27.556C999.82,25.739 1003.41,23.148 1006.69,19.782C1009.96,16.417 1012.88,12.47 1015.44,7.943ZM990.691,-12.876C987.772,-14.365 984.794,-15.11 981.756,-15.11C978.539,-15.11 975.426,-14.455 972.418,-13.144C969.41,-11.834 967.28,-10.285 966.029,-8.498C962.336,-3.732 960.489,1.51 960.489,7.228C960.489,9.313 960.698,11.309 961.115,13.215C961.532,15.121 962.247,17.742 963.259,21.078L990.691,-12.876Z" style="fill:rgb(255,202,57);fill-rule:nonzero;stroke:rgb(42,87,147);stroke-width:10.54px;stroke-linecap:butt;stroke-miterlimit:2;"/>
                <path d="M1105.42,-45.133C1120.85,-50.018 1132.32,-52.46 1139.82,-52.46C1145.78,-52.46 1150.9,-51.239 1155.19,-48.796C1160.49,-45.758 1166.21,-40.576 1172.35,-33.249C1178.48,-25.922 1182.3,-19.131 1183.78,-12.876C1186.94,-0.188 1188.52,10.892 1188.52,20.363C1188.52,25.367 1188.19,30.624 1187.54,36.134C1186.88,41.644 1185.87,48.718 1184.5,57.356L1147.15,59.589C1147.27,56.611 1147.33,52.322 1147.33,46.723C1147.33,23.371 1144.11,3.505 1137.68,-12.876C1136.49,-15.795 1135.09,-18.089 1133.48,-19.756C1131.87,-21.424 1130.44,-22.258 1129.19,-22.258C1127.88,-22.258 1127.22,-21.335 1127.22,-19.488C1127.22,-18.416 1127.34,-17.493 1127.58,-16.718C1128,-15.765 1128.41,-14.485 1128.83,-12.876C1132.05,0.05 1133.66,11.13 1133.66,20.363C1133.66,24.89 1133.36,29.641 1132.76,34.615C1132.17,39.589 1131.12,47.169 1129.64,57.356L1092.29,59.589C1092.4,56.611 1092.46,52.322 1092.46,46.723C1092.46,23.312 1089.22,3.446 1082.72,-12.876C1081.95,-14.782 1081.36,-16.793 1080.94,-18.908C1080.52,-21.022 1080.22,-22.08 1080.04,-22.08C1079.81,-22.08 1079.12,-20.68 1077.99,-17.88C1076.86,-15.08 1075.64,-12.191 1074.33,-9.213C1073.43,-7.128 1072.7,-4.745 1072.14,-2.064C1071.57,0.616 1071.15,3.624 1070.89,6.96C1070.62,10.296 1070.48,14.228 1070.48,18.755C1070.48,27.929 1071.02,39.574 1072.09,53.692L1028.22,58.785C1027.51,53.543 1026.85,48.331 1026.25,43.148C1025.66,37.966 1025.2,33.156 1024.87,28.718C1024.54,24.28 1024.38,19.499 1024.38,14.377C1024.38,12.172 1024.5,8.986 1024.74,4.816L1023.13,-47.277L1058.24,-51.745L1063.34,-45.848C1072.75,-48.886 1080.43,-50.405 1086.39,-50.405C1093,-50.405 1099.35,-48.647 1105.42,-45.133Z" style="fill:rgb(255,202,57);fill-rule:nonzero;stroke:rgb(42,87,147);stroke-width:10.54px;stroke-linecap:butt;stroke-miterlimit:2;"/>
                <path d="M1261.16,-39.414C1265.39,-37.151 1268.83,-34.098 1271.48,-30.256C1274.13,-26.413 1276.07,-22.095 1277.29,-17.299C1278.51,-12.504 1279.12,-7.515 1279.12,-2.333C1279.12,1.956 1278.78,6.096 1278.1,10.088C1277.41,14.079 1276.47,17.742 1275.28,21.078C1274.09,24.414 1272.69,27.243 1271.08,29.567C1267.33,35.166 1263.31,39.991 1259.02,44.042C1254.73,48.093 1250.35,51.354 1245.88,53.826C1241.42,56.298 1236.99,58.115 1232.62,59.277C1228.24,60.438 1223.9,61.019 1219.62,61.019C1214.55,61.019 1209.74,60.23 1205.18,58.651C1200.63,57.073 1196.74,55.003 1193.52,52.441C1188.22,48.033 1184.08,42.091 1181.1,34.615C1178.12,27.139 1176.64,19.231 1176.64,10.892C1176.64,-3.464 1180.78,-15.051 1189.06,-23.867C1196.14,-31.432 1203.47,-37.136 1211.04,-40.978C1218.6,-44.82 1226.35,-46.741 1234.27,-46.741C1238.91,-46.741 1243.38,-46.16 1247.67,-44.999C1251.96,-43.837 1256.46,-41.976 1261.16,-39.414ZM1255.89,-24.403C1254.88,-19.876 1252.69,-15.885 1249.33,-12.43C1245.96,-8.975 1242.67,-7.247 1239.45,-7.247C1237.84,-7.247 1236.41,-7.664 1235.16,-8.498C1233.38,-9.928 1232.48,-12.43 1232.48,-16.004C1232.48,-18.744 1233.39,-21.454 1235.21,-24.135C1237.02,-26.815 1239.9,-28.93 1243.83,-30.479C1239.9,-30.479 1236.1,-29.734 1232.44,-28.245C1228.77,-26.756 1225.63,-24.835 1223.01,-22.482C1220.39,-20.129 1218.29,-17.478 1216.71,-14.529C1215.13,-11.581 1214.34,-8.617 1214.34,-5.639C1214.34,-0.099 1216.9,4.309 1222.03,7.586C1226.79,10.624 1231.32,12.143 1235.61,12.143C1239.84,12.143 1243.59,10.728 1246.87,7.898C1250.14,5.069 1252.65,1.435 1254.37,-3.003C1256.1,-7.441 1256.96,-11.834 1256.96,-16.182C1256.96,-19.161 1256.61,-21.901 1255.89,-24.403Z" style="fill:rgb(255,202,57);fill-rule:nonzero;stroke:rgb(42,87,147);stroke-width:10.54px;stroke-linecap:butt;stroke-miterlimit:2;"/>
                <path d="M1310.4,-45.848C1317.01,-48.052 1322.7,-49.735 1327.46,-50.896C1332.23,-52.058 1336.79,-52.639 1341.13,-52.639C1346.97,-52.639 1352.1,-51.358 1356.5,-48.796C1361.81,-45.758 1367.52,-40.576 1373.66,-33.249C1379.8,-25.922 1383.61,-19.131 1385.1,-12.876C1388.25,-0.188 1389.83,10.892 1389.83,20.363C1389.83,25.367 1389.51,30.624 1388.85,36.134C1388.19,41.644 1387.18,48.718 1385.81,57.356L1348.46,59.589C1348.58,56.611 1348.64,52.322 1348.64,46.723C1348.64,23.371 1345.42,3.505 1338.99,-12.876C1336.49,-19.012 1334.05,-22.08 1331.66,-22.08C1328.57,-22.08 1325.14,-17.791 1321.39,-9.213C1320.5,-7.128 1319.77,-4.745 1319.2,-2.064C1318.63,0.616 1318.22,3.624 1317.95,6.96C1317.68,10.296 1317.55,14.228 1317.55,18.755C1317.55,27.929 1318.08,39.574 1319.15,53.692L1275.28,58.785C1274.57,53.543 1273.91,48.331 1273.32,43.148C1272.72,37.966 1272.26,33.156 1271.93,28.718C1271.6,24.28 1271.44,19.499 1271.44,14.377C1271.44,12.172 1271.56,8.986 1271.8,4.816L1270.19,-47.277L1305.31,-51.745L1310.4,-45.848Z" style="fill:rgb(255,202,57);fill-rule:nonzero;stroke:rgb(42,87,147);stroke-width:10.54px;stroke-linecap:butt;stroke-miterlimit:2;"/>
            </g>
            <g id="venetionBlinds" transform="matrix(0.323438,0,0,1,-1.35003e-14,0)">
                <g transform="matrix(1,0,0,1,-2.27374e-13,-45.469)">
                    <path d="M0,53.365L2560,53.365" style="fill:none;stroke:rgb(116,116,116);stroke-width:0.56px;"/>
                </g>
                <g transform="matrix(1,0,0,1,-2.27374e-13,-36.469)">
                    <path d="M0,53.365L2560,53.365" style="fill:none;stroke:rgb(116,116,116);stroke-width:0.56px;"/>
                </g>
                <g transform="matrix(1,0,0,1,-2.27374e-13,-28.469)">
                    <path d="M0,53.365L2560,53.365" style="fill:none;stroke:rgb(116,116,116);stroke-width:0.56px;"/>
                </g>
                <g transform="matrix(1,0,0,1,-2.27374e-13,-19.469)">
                    <path d="M0,53.365L2560,53.365" style="fill:none;stroke:rgb(116,116,116);stroke-width:0.56px;"/>
                </g>
                <g transform="matrix(1,0,0,1,-2.27374e-13,-11.469)">
                    <path d="M0,53.365L2560,53.365" style="fill:none;stroke:rgb(116,116,116);stroke-width:0.56px;"/>
                </g>
                <g transform="matrix(1,0,0,1,-2.27374e-13,-2.46895)">
                    <path d="M0,53.365L2560,53.365" style="fill:none;stroke:rgb(116,116,116);stroke-width:0.56px;"/>
                </g>
                <g transform="matrix(1,0,0,1,-2.27374e-13,5.53105)">
                    <path d="M0,53.365L2560,53.365" style="fill:none;stroke:rgb(116,116,116);stroke-width:0.56px;"/>
                </g>
                <g transform="matrix(1,0,0,1,-2.27374e-13,14.531)">
                    <path d="M0,53.365L2560,53.365" style="fill:none;stroke:rgb(116,116,116);stroke-width:0.56px;"/>
                </g>
                <g transform="matrix(1,0,0,1,-2.27374e-13,22.531)">
                    <path d="M0,53.365L2560,53.365" style="fill:none;stroke:rgb(116,116,116);stroke-width:0.56px;"/>
                </g>
                <g transform="matrix(1,0,0,1,-2.27374e-13,31.531)">
                    <path d="M0,53.365L2560,53.365" style="fill:none;stroke:rgb(116,116,116);stroke-width:0.56px;"/>
                </g>
                <g transform="matrix(1,0,0,1,-2.27374e-13,39.531)">
                    <path d="M0,53.365L2560,53.365" style="fill:none;stroke:rgb(116,116,116);stroke-width:0.56px;"/>
                </g>
                <g transform="matrix(1,0,0,1,-2.27374e-13,48.531)">
                    <path d="M0,53.365L2560,53.365" style="fill:none;stroke:rgb(116,116,116);stroke-width:0.56px;"/>
                </g>
                <g transform="matrix(1,0,0,1,-2.27374e-13,56.531)">
                    <path d="M0,53.365L2560,53.365" style="fill:none;stroke:rgb(116,116,116);stroke-width:0.56px;"/>
                </g>
                <g transform="matrix(1,0,0,1,-2.27374e-13,65.531)">
                    <path d="M0,53.365L2560,53.365" style="fill:none;stroke:rgb(116,116,116);stroke-width:0.56px;"/>
                </g>
                <g transform="matrix(1,0,0,1,-2.27374e-13,73.531)">
                    <path d="M0,53.365L2560,53.365" style="fill:none;stroke:rgb(116,116,116);stroke-width:0.56px;"/>
                </g>
                <g transform="matrix(1,0,0,1,-2.27374e-13,82.531)">
                    <path d="M0,53.365L2560,53.365" style="fill:none;stroke:rgb(116,116,116);stroke-width:0.56px;"/>
                </g>
                <g transform="matrix(1,0,0,1,-2.27374e-13,90.531)">
                    <path d="M0,53.365L2560,53.365" style="fill:none;stroke:rgb(116,116,116);stroke-width:0.56px;"/>
                </g>
                <g transform="matrix(1,0,0,1,-2.27374e-13,99.531)">
                    <path d="M0,53.365L2560,53.365" style="fill:none;stroke:rgb(116,116,116);stroke-width:0.56px;"/>
                </g>
                <g transform="matrix(1,0,0,1,-2.27374e-13,107.531)">
                    <path d="M0,53.365L2560,53.365" style="fill:none;stroke:rgb(116,116,116);stroke-width:0.56px;"/>
                </g>
                <g transform="matrix(1,0,0,1,-2.27374e-13,116.531)">
                    <path d="M0,53.365L2560,53.365" style="fill:none;stroke:rgb(116,116,116);stroke-width:0.56px;"/>
                </g>
                <g transform="matrix(1,0,0,1,-2.27374e-13,124.531)">
                    <path d="M0,53.365L2560,53.365" style="fill:none;stroke:rgb(116,116,116);stroke-width:0.56px;"/>
                </g>
                <g transform="matrix(1,0,0,1,-2.27374e-13,133.531)">
                    <path d="M0,53.365L2560,53.365" style="fill:none;stroke:rgb(116,116,116);stroke-width:0.56px;"/>
                </g>
                <g transform="matrix(1,0,0,1,-2.27374e-13,141.531)">
                    <path d="M0,53.365L2560,53.365" style="fill:none;stroke:rgb(116,116,116);stroke-width:0.56px;"/>
                </g>
                <g transform="matrix(1,0,0,1,-2.27374e-13,150.531)">
                    <path d="M0,53.365L2560,53.365" style="fill:none;stroke:rgb(116,116,116);stroke-width:0.56px;"/>
                </g>
                <g transform="matrix(1,0,0,1,-2.27374e-13,158.531)">
                    <path d="M0,53.365L2560,53.365" style="fill:none;stroke:rgb(116,116,116);stroke-width:0.56px;"/>
                </g>
                <g transform="matrix(1,0,0,1,-2.27374e-13,167.531)">
                    <path d="M0,53.365L2560,53.365" style="fill:none;stroke:rgb(116,116,116);stroke-width:0.56px;"/>
                </g>
                <g transform="matrix(1,0,0,1,-2.27374e-13,175.531)">
                    <path d="M0,53.365L2560,53.365" style="fill:none;stroke:rgb(116,116,116);stroke-width:0.56px;"/>
                </g>
                <g transform="matrix(1,0,0,1,-2.27374e-13,184.531)">
                    <path d="M0,53.365L2560,53.365" style="fill:none;stroke:rgb(116,116,116);stroke-width:0.56px;"/>
                </g>
                <g transform="matrix(1,0,0,1,-2.27374e-13,192.531)">
                    <path d="M0,53.365L2560,53.365" style="fill:none;stroke:rgb(116,116,116);stroke-width:0.56px;"/>
                </g>
                <g transform="matrix(1,0,0,1,-2.27374e-13,201.531)">
                    <path d="M0,53.365L2560,53.365" style="fill:none;stroke:rgb(116,116,116);stroke-width:0.56px;"/>
                </g>
                <g transform="matrix(1,0,0,1,-2.27374e-13,209.531)">
                    <path d="M0,53.365L2560,53.365" style="fill:none;stroke:rgb(116,116,116);stroke-width:0.56px;"/>
                </g>
                <g transform="matrix(1,0,0,1,-2.27374e-13,218.531)">
                    <path d="M0,53.365L2560,53.365" style="fill:none;stroke:rgb(116,116,116);stroke-width:0.56px;"/>
                </g>
                <g transform="matrix(1,0,0,1,-2.27374e-13,226.531)">
                    <path d="M0,53.365L2560,53.365" style="fill:none;stroke:rgb(116,116,116);stroke-width:0.56px;"/>
                </g>
                <g transform="matrix(1,0,0,1,-2.27374e-13,235.531)">
                    <path d="M0,53.365L2560,53.365" style="fill:none;stroke:rgb(116,116,116);stroke-width:0.56px;"/>
                </g>
                <g transform="matrix(1,0,0,1,-2.27374e-13,243.531)">
                    <path d="M0,53.365L2560,53.365" style="fill:none;stroke:rgb(116,116,116);stroke-width:0.56px;"/>
                </g>
                <g transform="matrix(1,0,0,1,-2.27374e-13,252.531)">
                    <path d="M0,53.365L2560,53.365" style="fill:none;stroke:rgb(116,116,116);stroke-width:0.56px;"/>
                </g>
                <g transform="matrix(1,0,0,1,-2.27374e-13,260.531)">
                    <path d="M0,53.365L2560,53.365" style="fill:none;stroke:rgb(116,116,116);stroke-width:0.56px;"/>
                </g>
                <g transform="matrix(1,0,0,1,-2.27374e-13,269.531)">
                    <path d="M0,53.365L2560,53.365" style="fill:none;stroke:rgb(116,116,116);stroke-width:0.56px;"/>
                </g>
                <g transform="matrix(1,0,0,1,-2.27374e-13,277.531)">
                    <path d="M0,53.365L2560,53.365" style="fill:none;stroke:rgb(116,116,116);stroke-width:0.56px;"/>
                </g>
                <g transform="matrix(1,0,0,1,-2.27374e-13,286.531)">
                    <path d="M0,53.365L2560,53.365" style="fill:none;stroke:rgb(116,116,116);stroke-width:0.56px;"/>
                </g>
                <g transform="matrix(1,0,0,1,-2.27374e-13,294.531)">
                    <path d="M0,53.365L2560,53.365" style="fill:none;stroke:rgb(116,116,116);stroke-width:0.56px;"/>
                </g>
                <g transform="matrix(1,0,0,1,-2.27374e-13,303.531)">
                    <path d="M0,53.365L2560,53.365" style="fill:none;stroke:rgb(116,116,116);stroke-width:0.56px;"/>
                </g>
                <g transform="matrix(1,0,0,1,-2.27374e-13,311.531)">
                    <path d="M0,53.365L2560,53.365" style="fill:none;stroke:rgb(116,116,116);stroke-width:0.56px;"/>
                </g>
                <g transform="matrix(1,0,0,1,-2.27374e-13,320.531)">
                    <path d="M0,53.365L2560,53.365" style="fill:none;stroke:rgb(116,116,116);stroke-width:0.56px;"/>
                </g>
                <g transform="matrix(1,0,0,1,-2.27374e-13,328.531)">
                    <path d="M0,53.365L2560,53.365" style="fill:none;stroke:rgb(116,116,116);stroke-width:0.56px;"/>
                </g>
                <g transform="matrix(1,0,0,1,-2.27374e-13,337.531)">
                    <path d="M0,53.365L2560,53.365" style="fill:none;stroke:rgb(116,116,116);stroke-width:0.56px;"/>
                </g>
                <g transform="matrix(1,0,0,1,-2.27374e-13,345.531)">
                    <path d="M0,53.365L2560,53.365" style="fill:none;stroke:rgb(116,116,116);stroke-width:0.56px;"/>
                </g>
                <g transform="matrix(1,0,0,1,-2.27374e-13,354.531)">
                    <path d="M0,53.365L2560,53.365" style="fill:none;stroke:rgb(116,116,116);stroke-width:0.56px;"/>
                </g>
                <g transform="matrix(1,0,0,1,-2.27374e-13,362.531)">
                    <path d="M0,53.365L2560,53.365" style="fill:none;stroke:rgb(116,116,116);stroke-width:0.56px;"/>
                </g>
                <g transform="matrix(1,0,0,1,-2.27374e-13,371.531)">
                    <path d="M0,53.365L2560,53.365" style="fill:none;stroke:rgb(116,116,116);stroke-width:0.56px;"/>
                </g>
                <g transform="matrix(1,0,0,1,-2.27374e-13,379.531)">
                    <path d="M0,53.365L2560,53.365" style="fill:none;stroke:rgb(116,116,116);stroke-width:0.56px;"/>
                </g>
                <g transform="matrix(1,0,0,1,-2.27374e-13,388.531)">
                    <path d="M0,53.365L2560,53.365" style="fill:none;stroke:rgb(116,116,116);stroke-width:0.56px;"/>
                </g>
                <g transform="matrix(1,0,0,1,-2.27374e-13,396.531)">
                    <path d="M0,53.365L2560,53.365" style="fill:none;stroke:rgb(116,116,116);stroke-width:0.56px;"/>
                </g>
                <g transform="matrix(1,0,0,1,-2.27374e-13,405.531)">
                    <path d="M0,53.365L2560,53.365" style="fill:none;stroke:rgb(116,116,116);stroke-width:0.56px;"/>
                </g>
                <g transform="matrix(1,0,0,1,-2.27374e-13,413.531)">
                    <path d="M0,53.365L2560,53.365" style="fill:none;stroke:rgb(116,116,116);stroke-width:0.56px;"/>
                </g>
                <g transform="matrix(1,0,0,1,-2.27374e-13,422.531)">
                    <path d="M0,53.365L2560,53.365" style="fill:none;stroke:rgb(116,116,116);stroke-width:0.56px;"/>
                </g>
                <g transform="matrix(1,0,0,1,-2.27374e-13,430.531)">
                    <path d="M0,53.365L2560,53.365" style="fill:none;stroke:rgb(116,116,116);stroke-width:0.56px;"/>
                </g>
                <g transform="matrix(1,0,0,1,-2.27374e-13,439.531)">
                    <path d="M0,53.365L2560,53.365" style="fill:none;stroke:rgb(116,116,116);stroke-width:0.56px;"/>
                </g>
                <g transform="matrix(1,0,0,1,-2.27374e-13,447.531)">
                    <path d="M0,53.365L2560,53.365" style="fill:none;stroke:rgb(116,116,116);stroke-width:0.56px;"/>
                </g>
                <g transform="matrix(1,0,0,1,-2.27374e-13,456.531)">
                    <path d="M0,53.365L2560,53.365" style="fill:none;stroke:rgb(116,116,116);stroke-width:0.56px;"/>
                </g>
                <g transform="matrix(1,0,0,1,-2.27374e-13,464.531)">
                    <path d="M0,53.365L2560,53.365" style="fill:none;stroke:rgb(116,116,116);stroke-width:0.56px;"/>
                </g>
                <g transform="matrix(1,0,0,1,-2.27374e-13,473.531)">
                    <path d="M0,53.365L2560,53.365" style="fill:none;stroke:rgb(116,116,116);stroke-width:0.56px;"/>
                </g>
                <g transform="matrix(1,0,0,1,-2.27374e-13,481.531)">
                    <path d="M0,53.365L2560,53.365" style="fill:none;stroke:rgb(116,116,116);stroke-width:0.56px;"/>
                </g>
                <g transform="matrix(1,0,0,1,-2.27374e-13,490.531)">
                    <path d="M0,53.365L2560,53.365" style="fill:none;stroke:rgb(116,116,116);stroke-width:0.56px;"/>
                </g>
                <g transform="matrix(1,0,0,1,-2.27374e-13,498.531)">
                    <path d="M0,53.365L2560,53.365" style="fill:none;stroke:rgb(116,116,116);stroke-width:0.56px;"/>
                </g>
                <g transform="matrix(1,0,0,1,-2.27374e-13,507.531)">
                    <path d="M0,53.365L2560,53.365" style="fill:none;stroke:rgb(116,116,116);stroke-width:0.56px;"/>
                </g>
                <g transform="matrix(1,0,0,1,-2.27374e-13,515.531)">
                    <path d="M0,53.365L2560,53.365" style="fill:none;stroke:rgb(116,116,116);stroke-width:0.56px;"/>
                </g>
                <g transform="matrix(1,0,0,1,-2.27374e-13,524.531)">
                    <path d="M0,53.365L2560,53.365" style="fill:none;stroke:rgb(116,116,116);stroke-width:0.56px;"/>
                </g>
                <g transform="matrix(1,0,0,1,-2.27374e-13,532.531)">
                    <path d="M0,53.365L2560,53.365" style="fill:none;stroke:rgb(116,116,116);stroke-width:0.56px;"/>
                </g>
                <g transform="matrix(1,0,0,1,-2.27374e-13,541.531)">
                    <path d="M0,53.365L2560,53.365" style="fill:none;stroke:rgb(116,116,116);stroke-width:0.56px;"/>
                </g>
                <g transform="matrix(1,0,0,1,-2.27374e-13,549.531)">
                    <path d="M0,53.365L2560,53.365" style="fill:none;stroke:rgb(116,116,116);stroke-width:0.56px;"/>
                </g>
                <g transform="matrix(1,0,0,1,-2.27374e-13,558.531)">
                    <path d="M0,53.365L2560,53.365" style="fill:none;stroke:rgb(116,116,116);stroke-width:0.56px;"/>
                </g>
                <g transform="matrix(1,0,0,1,-2.27374e-13,566.531)">
                    <path d="M0,53.365L2560,53.365" style="fill:none;stroke:rgb(116,116,116);stroke-width:0.56px;"/>
                </g>
                <g transform="matrix(1,0,0,1,-2.27374e-13,575.531)">
                    <path d="M0,53.365L2560,53.365" style="fill:none;stroke:rgb(116,116,116);stroke-width:0.56px;"/>
                </g>
                <g transform="matrix(1,0,0,1,-2.27374e-13,583.531)">
                    <path d="M0,53.365L2560,53.365" style="fill:none;stroke:rgb(116,116,116);stroke-width:0.56px;"/>
                </g>
                <g transform="matrix(1,0,0,1,-2.27374e-13,592.531)">
                    <path d="M0,53.365L2560,53.365" style="fill:none;stroke:rgb(116,116,116);stroke-width:0.56px;"/>
                </g>
                <g transform="matrix(1,0,0,1,-2.27374e-13,600.531)">
                    <path d="M0,53.365L2560,53.365" style="fill:none;stroke:rgb(116,116,116);stroke-width:0.56px;"/>
                </g>
                <g transform="matrix(1,0,0,1,-2.27374e-13,609.531)">
                    <path d="M0,53.365L2560,53.365" style="fill:none;stroke:rgb(116,116,116);stroke-width:0.56px;"/>
                </g>
                <g transform="matrix(1,0,0,1,-2.27374e-13,617.531)">
                    <path d="M0,53.365L2560,53.365" style="fill:none;stroke:rgb(116,116,116);stroke-width:0.56px;"/>
                </g>
                <g transform="matrix(1,0,0,1,-2.27374e-13,626.531)">
                    <path d="M0,53.365L2560,53.365" style="fill:none;stroke:rgb(116,116,116);stroke-width:0.56px;"/>
                </g>
                <g transform="matrix(1,0,0,1,-2.27374e-13,634.531)">
                    <path d="M0,53.365L2560,53.365" style="fill:none;stroke:rgb(116,116,116);stroke-width:0.56px;"/>
                </g>
                <g transform="matrix(1,0,0,1,-2.27374e-13,643.531)">
                    <path d="M0,53.365L2560,53.365" style="fill:none;stroke:rgb(116,116,116);stroke-width:0.56px;"/>
                </g>
                <g transform="matrix(1,0,0,1,-2.27374e-13,651.531)">
                    <path d="M0,53.365L2560,53.365" style="fill:none;stroke:rgb(116,116,116);stroke-width:0.56px;"/>
                </g>
                <g transform="matrix(1,0,0,1,-2.27374e-13,660.531)">
                    <path d="M0,53.365L2560,53.365" style="fill:none;stroke:rgb(116,116,116);stroke-width:0.56px;"/>
                </g>
                <g transform="matrix(1,0,0,1,-2.27374e-13,668.531)">
                    <path d="M0,53.365L2560,53.365" style="fill:none;stroke:rgb(116,116,116);stroke-width:0.56px;"/>
                </g>
                <g transform="matrix(1,0,0,1,-2.27374e-13,677.531)">
                    <path d="M0,53.365L2560,53.365" style="fill:none;stroke:rgb(116,116,116);stroke-width:0.56px;"/>
                </g>
                <g transform="matrix(1,0,0,1,-2.27374e-13,685.531)">
                    <path d="M0,53.365L2560,53.365" style="fill:none;stroke:rgb(116,116,116);stroke-width:0.56px;"/>
                </g>
                <g transform="matrix(1,0,0,1,-2.27374e-13,694.531)">
                    <path d="M0,53.365L2560,53.365" style="fill:none;stroke:rgb(116,116,116);stroke-width:0.56px;"/>
                </g>
                <g transform="matrix(1,0,0,1,-2.27374e-13,702.531)">
                    <path d="M0,53.365L2560,53.365" style="fill:none;stroke:rgb(116,116,116);stroke-width:0.56px;"/>
                </g>
                <g transform="matrix(1,0,0,1,-2.27374e-13,711.531)">
                    <path d="M0,53.365L2560,53.365" style="fill:none;stroke:rgb(116,116,116);stroke-width:0.56px;"/>
                </g>
                <g transform="matrix(1,0,0,1,-2.27374e-13,719.531)">
                    <path d="M0,53.365L2560,53.365" style="fill:none;stroke:rgb(116,116,116);stroke-width:0.56px;"/>
                </g>
                <g transform="matrix(1,0,0,1,-2.27374e-13,728.531)">
                    <path d="M0,53.365L2560,53.365" style="fill:none;stroke:rgb(116,116,116);stroke-width:0.56px;"/>
                </g>
                <g transform="matrix(1,0,0,1,-2.27374e-13,736.531)">
                    <path d="M0,53.365L2560,53.365" style="fill:none;stroke:rgb(116,116,116);stroke-width:0.56px;"/>
                </g>
                <g transform="matrix(1,0,0,1,-2.27374e-13,745.531)">
                    <path d="M0,53.365L2560,53.365" style="fill:none;stroke:rgb(116,116,116);stroke-width:0.56px;"/>
                </g>
                <g transform="matrix(1,0,0,1,-2.27374e-13,753.531)">
                    <path d="M0,53.365L2560,53.365" style="fill:none;stroke:rgb(116,116,116);stroke-width:0.56px;"/>
                </g>
                <g transform="matrix(1,0,0,1,-2.27374e-13,762.531)">
                    <path d="M0,53.365L2560,53.365" style="fill:none;stroke:rgb(116,116,116);stroke-width:0.56px;"/>
                </g>
                <g transform="matrix(1,0,0,1,-2.27374e-13,770.531)">
                    <path d="M0,53.365L2560,53.365" style="fill:none;stroke:rgb(116,116,116);stroke-width:0.56px;"/>
                </g>
                <g transform="matrix(1,0,0,1,-2.27374e-13,779.531)">
                    <path d="M0,53.365L2560,53.365" style="fill:none;stroke:rgb(116,116,116);stroke-width:0.56px;"/>
                </g>
                <g transform="matrix(1,0,0,1,-2.27374e-13,787.531)">
                    <path d="M0,53.365L2560,53.365" style="fill:none;stroke:rgb(116,116,116);stroke-width:0.56px;"/>
                </g>
                <g transform="matrix(1,0,0,1,-2.27374e-13,796.531)">
                    <path d="M0,53.365L2560,53.365" style="fill:none;stroke:rgb(116,116,116);stroke-width:0.56px;"/>
                </g>
                <g transform="matrix(1,0,0,1,-2.27374e-13,804.531)">
                    <path d="M0,53.365L2560,53.365" style="fill:none;stroke:rgb(116,116,116);stroke-width:0.56px;"/>
                </g>
                <g transform="matrix(1,0,0,1,-2.27374e-13,813.531)">
                    <path d="M0,53.365L2560,53.365" style="fill:none;stroke:rgb(116,116,116);stroke-width:0.56px;"/>
                </g>
                <g transform="matrix(1,0,0,1,-2.27374e-13,821.531)">
                    <path d="M0,53.365L2560,53.365" style="fill:none;stroke:rgb(116,116,116);stroke-width:0.56px;"/>
                </g>
                <g transform="matrix(1,0,0,1,-2.27374e-13,830.531)">
                    <path d="M0,53.365L2560,53.365" style="fill:none;stroke:rgb(116,116,116);stroke-width:0.56px;"/>
                </g>
                <g transform="matrix(1,0,0,1,-2.27374e-13,838.531)">
                    <path d="M0,53.365L2560,53.365" style="fill:none;stroke:rgb(116,116,116);stroke-width:0.56px;"/>
                </g>
                <g transform="matrix(1,0,0,1,-2.27374e-13,847.531)">
                    <path d="M0,53.365L2560,53.365" style="fill:none;stroke:rgb(116,116,116);stroke-width:0.56px;"/>
                </g>
                <g transform="matrix(1,0,0,1,-2.27374e-13,855.531)">
                    <path d="M0,53.365L2560,53.365" style="fill:none;stroke:rgb(116,116,116);stroke-width:0.56px;"/>
                </g>
                <g transform="matrix(1,0,0,1,-2.27374e-13,864.531)">
                    <path d="M0,53.365L2560,53.365" style="fill:none;stroke:rgb(116,116,116);stroke-width:0.56px;"/>
                </g>
                <g transform="matrix(1,0,0,1,-2.27374e-13,872.531)">
                    <path d="M0,53.365L2560,53.365" style="fill:none;stroke:rgb(116,116,116);stroke-width:0.56px;"/>
                </g>
                <g transform="matrix(1,0,0,1,-2.27374e-13,881.531)">
                    <path d="M0,53.365L2560,53.365" style="fill:none;stroke:rgb(116,116,116);stroke-width:0.56px;"/>
                </g>
                <g transform="matrix(1,0,0,1,-2.27374e-13,889.531)">
                    <path d="M0,53.365L2560,53.365" style="fill:none;stroke:rgb(116,116,116);stroke-width:0.56px;"/>
                </g>
                <g transform="matrix(1,0,0,1,-2.27374e-13,898.531)">
                    <path d="M0,53.365L2560,53.365" style="fill:none;stroke:rgb(116,116,116);stroke-width:0.56px;"/>
                </g>
                <g transform="matrix(1,0,0,1,-2.27374e-13,906.531)">
                    <path d="M0,53.365L2560,53.365" style="fill:none;stroke:rgb(116,116,116);stroke-width:0.56px;"/>
                </g>
                <g transform="matrix(1,0,0,1,-2.27374e-13,915.531)">
                    <path d="M0,53.365L2560,53.365" style="fill:none;stroke:rgb(116,116,116);stroke-width:0.56px;"/>
                </g>
                <g transform="matrix(1,0,0,1,-2.27374e-13,923.531)">
                    <path d="M0,53.365L2560,53.365" style="fill:none;stroke:rgb(116,116,116);stroke-width:0.56px;"/>
                </g>
                <g transform="matrix(1,0,0,1,-2.27374e-13,932.531)">
                    <path d="M0,53.365L2560,53.365" style="fill:none;stroke:rgb(116,116,116);stroke-width:0.56px;"/>
                </g>
                <g transform="matrix(1,0,0,1,-2.27374e-13,940.531)">
                    <path d="M0,53.365L2560,53.365" style="fill:none;stroke:rgb(116,116,116);stroke-width:0.56px;"/>
                </g>
                <g transform="matrix(1,0,0,1,-2.27374e-13,949.531)">
                    <path d="M0,53.365L2560,53.365" style="fill:none;stroke:rgb(116,116,116);stroke-width:0.56px;"/>
                </g>
                <g transform="matrix(1,0,0,1,-2.27374e-13,957.531)">
                    <path d="M0,53.365L2560,53.365" style="fill:none;stroke:rgb(116,116,116);stroke-width:0.56px;"/>
                </g>
                <g transform="matrix(1,0,0,1,-2.27374e-13,966.531)">
                    <path d="M0,53.365L2560,53.365" style="fill:none;stroke:rgb(116,116,116);stroke-width:0.56px;"/>
                </g>
                <g transform="matrix(1,0,0,1,-2.27374e-13,974.531)">
                    <path d="M0,53.365L2560,53.365" style="fill:none;stroke:rgb(116,116,116);stroke-width:0.56px;"/>
                </g>
                <g transform="matrix(1,0,0,1,-2.27374e-13,983.531)">
                    <path d="M0,53.365L2560,53.365" style="fill:none;stroke:rgb(116,116,116);stroke-width:0.56px;"/>
                </g>
                <g transform="matrix(1,0,0,1,-2.27374e-13,991.531)">
                    <path d="M0,53.365L2560,53.365" style="fill:none;stroke:rgb(116,116,116);stroke-width:0.56px;"/>
                </g>
                <g transform="matrix(1,0,0,1,-2.27374e-13,1000.53)">
                    <path d="M0,53.365L2560,53.365" style="fill:none;stroke:rgb(116,116,116);stroke-width:0.56px;"/>
                </g>
                <g transform="matrix(1,0,0,1,-2.27374e-13,1008.53)">
                    <path d="M0,53.365L2560,53.365" style="fill:none;stroke:rgb(116,116,116);stroke-width:0.56px;"/>
                </g>
                <g transform="matrix(1,0,0,1,-2.27374e-13,1017.53)">
                    <path d="M0,53.365L2560,53.365" style="fill:none;stroke:rgb(116,116,116);stroke-width:0.56px;"/>
                </g>
                <g transform="matrix(1,0,0,1,-2.27374e-13,1025.53)">
                    <path d="M0,53.365L2560,53.365" style="fill:none;stroke:rgb(116,116,116);stroke-width:0.56px;"/>
                </g>
                <g transform="matrix(1,0,0,1,-2.27374e-13,1034.53)">
                    <path d="M0,53.365L2560,53.365" style="fill:none;stroke:rgb(116,116,116);stroke-width:0.56px;"/>
                </g>
                <g transform="matrix(1,0,0,1,-2.27374e-13,1042.53)">
                    <path d="M0,53.365L2560,53.365" style="fill:none;stroke:rgb(116,116,116);stroke-width:0.56px;"/>
                </g>
                <g transform="matrix(1,0,0,1,-2.27374e-13,1051.53)">
                    <path d="M0,53.365L2560,53.365" style="fill:none;stroke:rgb(116,116,116);stroke-width:0.56px;"/>
                </g>
                <g transform="matrix(1,0,0,1,-2.27374e-13,1059.53)">
                    <path d="M0,53.365L2560,53.365" style="fill:none;stroke:rgb(116,116,116);stroke-width:0.56px;"/>
                </g>
                <g transform="matrix(1,0,0,1,-2.27374e-13,1068.53)">
                    <path d="M0,53.365L2560,53.365" style="fill:none;stroke:rgb(116,116,116);stroke-width:0.56px;"/>
                </g>
                <g transform="matrix(1,0,0,1,-2.27374e-13,1076.53)">
                    <path d="M0,53.365L2560,53.365" style="fill:none;stroke:rgb(116,116,116);stroke-width:0.56px;"/>
                </g>
                <g transform="matrix(1,0,0,1,-2.27374e-13,1085.53)">
                    <path d="M0,53.365L2560,53.365" style="fill:none;stroke:rgb(116,116,116);stroke-width:0.56px;"/>
                </g>
                <g transform="matrix(1,0,0,1,-2.27374e-13,1093.53)">
                    <path d="M0,53.365L2560,53.365" style="fill:none;stroke:rgb(116,116,116);stroke-width:0.56px;"/>
                </g>
                <g transform="matrix(1,0,0,1,-2.27374e-13,1102.53)">
                    <path d="M0,53.365L2560,53.365" style="fill:none;stroke:rgb(116,116,116);stroke-width:0.56px;"/>
                </g>
                <g transform="matrix(1,0,0,1,-2.27374e-13,1110.53)">
                    <path d="M0,53.365L2560,53.365" style="fill:none;stroke:rgb(116,116,116);stroke-width:0.56px;"/>
                </g>
                <g transform="matrix(1,0,0,1,-2.27374e-13,1119.53)">
                    <path d="M0,53.365L2560,53.365" style="fill:none;stroke:rgb(116,116,116);stroke-width:0.56px;"/>
                </g>
                <g transform="matrix(1,0,0,1,-2.27374e-13,1127.53)">
                    <path d="M0,53.365L2560,53.365" style="fill:none;stroke:rgb(116,116,116);stroke-width:0.56px;"/>
                </g>
                <g transform="matrix(1,0,0,1,-2.27374e-13,1136.53)">
                    <path d="M0,53.365L2560,53.365" style="fill:none;stroke:rgb(116,116,116);stroke-width:0.56px;"/>
                </g>
                <g transform="matrix(1,0,0,1,-2.27374e-13,1144.53)">
                    <path d="M0,53.365L2560,53.365" style="fill:none;stroke:rgb(116,116,116);stroke-width:0.56px;"/>
                </g>
                <g transform="matrix(1,0,0,1,-2.27374e-13,1153.53)">
                    <path d="M0,53.365L2560,53.365" style="fill:none;stroke:rgb(116,116,116);stroke-width:0.56px;"/>
                </g>
                <g transform="matrix(1,0,0,1,-2.27374e-13,1161.53)">
                    <path d="M0,53.365L2560,53.365" style="fill:none;stroke:rgb(116,116,116);stroke-width:0.56px;"/>
                </g>
                <g transform="matrix(1,0,0,1,-2.27374e-13,1170.53)">
                    <path d="M0,53.365L2560,53.365" style="fill:none;stroke:rgb(116,116,116);stroke-width:0.56px;"/>
                </g>
                <g transform="matrix(1,0,0,1,-2.27374e-13,1178.53)">
                    <path d="M0,53.365L2560,53.365" style="fill:none;stroke:rgb(116,116,116);stroke-width:0.56px;"/>
                </g>
                <g transform="matrix(1,0,0,1,-2.27374e-13,1187.53)">
                    <path d="M0,53.365L2560,53.365" style="fill:none;stroke:rgb(116,116,116);stroke-width:0.56px;"/>
                </g>
                <g transform="matrix(1,0,0,1,-2.27374e-13,1195.53)">
                    <path d="M0,53.365L2560,53.365" style="fill:none;stroke:rgb(116,116,116);stroke-width:0.56px;"/>
                </g>
                <g transform="matrix(1,0,0,1,-2.27374e-13,1204.53)">
                    <path d="M0,53.365L2560,53.365" style="fill:none;stroke:rgb(116,116,116);stroke-width:0.56px;"/>
                </g>
                <g transform="matrix(1,0,0,1,-2.27374e-13,1212.53)">
                    <path d="M0,53.365L2560,53.365" style="fill:none;stroke:rgb(116,116,116);stroke-width:0.56px;"/>
                </g>
                <g transform="matrix(1,0,0,1,-2.27374e-13,1221.53)">
                    <path d="M0,53.365L2560,53.365" style="fill:none;stroke:rgb(116,116,116);stroke-width:0.56px;"/>
                </g>
                <g transform="matrix(1,0,0,1,-2.27374e-13,1229.53)">
                    <path d="M0,53.365L2560,53.365" style="fill:none;stroke:rgb(116,116,116);stroke-width:0.56px;"/>
                </g>
                <g transform="matrix(1,0,0,1,-2.27374e-13,1238.53)">
                    <path d="M0,53.365L2560,53.365" style="fill:none;stroke:rgb(116,116,116);stroke-width:0.56px;"/>
                </g>
                <g transform="matrix(1,0,0,1,-2.27374e-13,1246.53)">
                    <path d="M0,53.365L2560,53.365" style="fill:none;stroke:rgb(116,116,116);stroke-width:0.56px;"/>
                </g>
                <g transform="matrix(1,0,0,1,-2.27374e-13,1255.53)">
                    <path d="M0,53.365L2560,53.365" style="fill:none;stroke:rgb(116,116,116);stroke-width:0.56px;"/>
                </g>
                <g transform="matrix(1,0,0,1,-2.27374e-13,1263.53)">
                    <path d="M0,53.365L2560,53.365" style="fill:none;stroke:rgb(116,116,116);stroke-width:0.56px;"/>
                </g>
                <g transform="matrix(1,0,0,1,-2.27374e-13,1272.53)">
                    <path d="M0,53.365L2560,53.365" style="fill:none;stroke:rgb(116,116,116);stroke-width:0.56px;"/>
                </g>
                <g transform="matrix(1,0,0,1,-2.27374e-13,1280.53)">
                    <path d="M0,53.365L2560,53.365" style="fill:none;stroke:rgb(116,116,116);stroke-width:0.56px;"/>
                </g>
                <g transform="matrix(1,0,0,1,-2.27374e-13,1289.53)">
                    <path d="M0,53.365L2560,53.365" style="fill:none;stroke:rgb(116,116,116);stroke-width:0.56px;"/>
                </g>
                <g transform="matrix(1,0,0,1,-2.27374e-13,1297.53)">
                    <path d="M0,53.365L2560,53.365" style="fill:none;stroke:rgb(116,116,116);stroke-width:0.56px;"/>
                </g>
                <g transform="matrix(1,0,0,1,-2.27374e-13,1306.53)">
                    <path d="M0,53.365L2560,53.365" style="fill:none;stroke:rgb(116,116,116);stroke-width:0.56px;"/>
                </g>
                <g transform="matrix(1,0,0,1,-2.27374e-13,1314.53)">
                    <path d="M0,53.365L2560,53.365" style="fill:none;stroke:rgb(116,116,116);stroke-width:0.56px;"/>
                </g>
                <g transform="matrix(1,0,0,1,-2.27374e-13,1323.53)">
                    <path d="M0,53.365L2560,53.365" style="fill:none;stroke:rgb(116,116,116);stroke-width:0.56px;"/>
                </g>
                <g transform="matrix(1,0,0,1,-2.27374e-13,1331.53)">
                    <path d="M0,53.365L2560,53.365" style="fill:none;stroke:rgb(116,116,116);stroke-width:0.56px;"/>
                </g>
                <g transform="matrix(1,0,0,1,-2.27374e-13,1340.53)">
                    <path d="M0,53.365L2560,53.365" style="fill:none;stroke:rgb(116,116,116);stroke-width:0.56px;"/>
                </g>
                <g transform="matrix(1,0,0,1,-2.27374e-13,1348.53)">
                    <path d="M0,53.365L2560,53.365" style="fill:none;stroke:rgb(116,116,116);stroke-width:0.56px;"/>
                </g>
                <g transform="matrix(1,0,0,1,-2.27374e-13,1357.53)">
                    <path d="M0,53.365L2560,53.365" style="fill:none;stroke:rgb(116,116,116);stroke-width:0.56px;"/>
                </g>
                <g transform="matrix(1,0,0,1,-2.27374e-13,1365.53)">
                    <path d="M0,53.365L2560,53.365" style="fill:none;stroke:rgb(116,116,116);stroke-width:0.56px;"/>
                </g>
                <g transform="matrix(1,0,0,1,-2.27374e-13,1374.53)">
                    <path d="M0,53.365L2560,53.365" style="fill:none;stroke:rgb(116,116,116);stroke-width:0.56px;"/>
                </g>
                <g transform="matrix(1,0,0,1,-2.27374e-13,1382.53)">
                    <path d="M0,53.365L2560,53.365" style="fill:none;stroke:rgb(116,116,116);stroke-width:0.56px;"/>
                </g>
                <g transform="matrix(1,0,0,1,-2.27374e-13,1390.53)">
                    <path d="M0,53.365L2560,53.365" style="fill:none;stroke:rgb(116,116,116);stroke-width:0.56px;"/>
                </g>
                <g transform="matrix(1,0,0,1,-2.27374e-13,1398.53)">
                    <path d="M0,53.365L2560,53.365" style="fill:none;stroke:rgb(116,116,116);stroke-width:0.56px;"/>
                </g>
                <g transform="matrix(1,0,0,1,-2.27374e-13,1407.53)">
                    <path d="M0,53.365L2560,53.365" style="fill:none;stroke:rgb(116,116,116);stroke-width:0.56px;"/>
                </g>
                <g transform="matrix(1,0,0,1,-2.27374e-13,1415.53)">
                    <path d="M0,53.365L2560,53.365" style="fill:none;stroke:rgb(116,116,116);stroke-width:0.56px;"/>
                </g>
                <g transform="matrix(1,0,0,1,-2.27374e-13,1424.53)">
                    <path d="M0,53.365L2560,53.365" style="fill:none;stroke:rgb(116,116,116);stroke-width:0.56px;"/>
                </g>
                <g transform="matrix(1,0,0,1,-2.27374e-13,1432.53)">
                    <path d="M0,53.365L2560,53.365" style="fill:none;stroke:rgb(116,116,116);stroke-width:0.56px;"/>
                </g>
                <g transform="matrix(1,0,0,1,-2.27374e-13,1441.53)">
                    <path d="M0,53.365L2560,53.365" style="fill:none;stroke:rgb(116,116,116);stroke-width:0.56px;"/>
                </g>
                <g transform="matrix(1,0,0,1,-2.27374e-13,1449.53)">
                    <path d="M0,53.365L2560,53.365" style="fill:none;stroke:rgb(116,116,116);stroke-width:0.56px;"/>
                </g>
                <g transform="matrix(1,0,0,1,-2.27374e-13,1458.53)">
                    <path d="M0,53.365L2560,53.365" style="fill:none;stroke:rgb(116,116,116);stroke-width:0.56px;"/>
                </g>
                <g transform="matrix(1,0,0,1,-2.27374e-13,1466.53)">
                    <path d="M0,53.365L2560,53.365" style="fill:none;stroke:rgb(116,116,116);stroke-width:0.56px;"/>
                </g>
                <g transform="matrix(1,0,0,1,-2.27374e-13,1475.53)">
                    <path d="M0,53.365L2560,53.365" style="fill:none;stroke:rgb(116,116,116);stroke-width:0.56px;"/>
                </g>
                <g transform="matrix(1,0,0,1,-2.27374e-13,1483.53)">
                    <path d="M0,53.365L2560,53.365" style="fill:none;stroke:rgb(116,116,116);stroke-width:0.56px;"/>
                </g>
                <g transform="matrix(1,0,0,1,-2.27374e-13,1492.53)">
                    <path d="M0,53.365L2560,53.365" style="fill:none;stroke:rgb(116,116,116);stroke-width:0.56px;"/>
                </g>
                <g transform="matrix(1,0,0,1,-2.27374e-13,1500.53)">
                    <path d="M0,53.365L2560,53.365" style="fill:none;stroke:rgb(116,116,116);stroke-width:0.56px;"/>
                </g>
                <g transform="matrix(1,0,0,1,-2.27374e-13,1509.53)">
                    <path d="M0,53.365L2560,53.365" style="fill:none;stroke:rgb(116,116,116);stroke-width:0.56px;"/>
                </g>
                <g transform="matrix(1,0,0,1,-2.27374e-13,1517.53)">
                    <path d="M0,53.365L2560,53.365" style="fill:none;stroke:rgb(116,116,116);stroke-width:0.56px;"/>
                </g>
                <g transform="matrix(1,0,0,1,-2.27374e-13,1526.53)">
                    <path d="M0,53.365L2560,53.365" style="fill:none;stroke:rgb(116,116,116);stroke-width:0.56px;"/>
                </g>
                <g transform="matrix(1,0,0,1,-2.27374e-13,1534.53)">
                    <path d="M0,53.365L2560,53.365" style="fill:none;stroke:rgb(116,116,116);stroke-width:0.56px;"/>
                </g>
                <g transform="matrix(1,0,0,1,-2.27374e-13,1543.53)">
                    <path d="M0,53.365L2560,53.365" style="fill:none;stroke:rgb(116,116,116);stroke-width:0.56px;"/>
                </g>
                <g transform="matrix(1,0,0,1,-2.27374e-13,1551.53)">
                    <path d="M0,53.365L2560,53.365" style="fill:none;stroke:rgb(116,116,116);stroke-width:0.56px;"/>
                </g>
                <g transform="matrix(1,0,0,1,-2.27374e-13,1560.53)">
                    <path d="M0,53.365L2560,53.365" style="fill:none;stroke:rgb(116,116,116);stroke-width:0.56px;"/>
                </g>
                <g transform="matrix(1,0,0,1,-2.27374e-13,1568.53)">
                    <path d="M0,53.365L2560,53.365" style="fill:none;stroke:rgb(116,116,116);stroke-width:0.56px;"/>
                </g>
                <g transform="matrix(1,0,0,1,-2.27374e-13,1576.12)">
                    <path d="M0,53.365L2560,53.365" style="fill:none;stroke:rgb(116,116,116);stroke-width:0.56px;"/>
                </g>
                <g transform="matrix(1,0,0,1,-2.27374e-13,1584.12)">
                    <path d="M0,53.365L2560,53.365" style="fill:none;stroke:rgb(116,116,116);stroke-width:0.56px;"/>
                </g>
                <g transform="matrix(1,0,0,1,-2.27374e-13,1593.12)">
                    <path d="M0,53.365L2560,53.365" style="fill:none;stroke:rgb(116,116,116);stroke-width:0.56px;"/>
                </g>
                <g transform="matrix(1,0,0,1,-2.27374e-13,1601.12)">
                    <path d="M0,53.365L2560,53.365" style="fill:none;stroke:rgb(116,116,116);stroke-width:0.56px;"/>
                </g>
                <g transform="matrix(1,0,0,1,-2.27374e-13,1610.12)">
                    <path d="M0,53.365L2560,53.365" style="fill:none;stroke:rgb(116,116,116);stroke-width:0.56px;"/>
                </g>
                <g transform="matrix(1,0,0,1,-2.27374e-13,1618.12)">
                    <path d="M0,53.365L2560,53.365" style="fill:none;stroke:rgb(116,116,116);stroke-width:0.56px;"/>
                </g>
                <g transform="matrix(1,0,0,1,-2.27374e-13,1627.12)">
                    <path d="M0,53.365L2560,53.365" style="fill:none;stroke:rgb(116,116,116);stroke-width:0.56px;"/>
                </g>
                <g transform="matrix(1,0,0,1,-2.27374e-13,1635.12)">
                    <path d="M0,53.365L2560,53.365" style="fill:none;stroke:rgb(116,116,116);stroke-width:0.56px;"/>
                </g>
                <g transform="matrix(1,0,0,1,-2.27374e-13,1644.12)">
                    <path d="M0,53.365L2560,53.365" style="fill:none;stroke:rgb(116,116,116);stroke-width:0.56px;"/>
                </g>
                <g transform="matrix(1,0,0,1,-2.27374e-13,1652.12)">
                    <path d="M0,53.365L2560,53.365" style="fill:none;stroke:rgb(116,116,116);stroke-width:0.56px;"/>
                </g>
                <g transform="matrix(1,0,0,1,-2.27374e-13,1661.12)">
                    <path d="M0,53.365L2560,53.365" style="fill:none;stroke:rgb(116,116,116);stroke-width:0.56px;"/>
                </g>
                <g transform="matrix(1,0,0,1,-2.27374e-13,1669.12)">
                    <path d="M0,53.365L2560,53.365" style="fill:none;stroke:rgb(116,116,116);stroke-width:0.56px;"/>
                </g>
                <g transform="matrix(1,0,0,1,-2.27374e-13,1678.12)">
                    <path d="M0,53.365L2560,53.365" style="fill:none;stroke:rgb(116,116,116);stroke-width:0.56px;"/>
                </g>
                <g transform="matrix(1,0,0,1,-2.27374e-13,1686.12)">
                    <path d="M0,53.365L2560,53.365" style="fill:none;stroke:rgb(116,116,116);stroke-width:0.56px;"/>
                </g>
                <g transform="matrix(1,0,0,1,-2.27374e-13,1695.12)">
                    <path d="M0,53.365L2560,53.365" style="fill:none;stroke:rgb(116,116,116);stroke-width:0.56px;"/>
                </g>
                <g transform="matrix(1,0,0,1,-2.27374e-13,1703.12)">
                    <path d="M0,53.365L2560,53.365" style="fill:none;stroke:rgb(116,116,116);stroke-width:0.56px;"/>
                </g>
                <g transform="matrix(1,0,0,1,-2.27374e-13,1712.12)">
                    <path d="M0,53.365L2560,53.365" style="fill:none;stroke:rgb(116,116,116);stroke-width:0.56px;"/>
                </g>
                <g transform="matrix(1,0,0,1,-2.27374e-13,1720.12)">
                    <path d="M0,53.365L2560,53.365" style="fill:none;stroke:rgb(116,116,116);stroke-width:0.56px;"/>
                </g>
                <g transform="matrix(1,0,0,1,-2.27374e-13,1729.12)">
                    <path d="M0,53.365L2560,53.365" style="fill:none;stroke:rgb(116,116,116);stroke-width:0.56px;"/>
                </g>
            </g>
        </g>
    </g>
</svg>
