<?xml version="1.0" encoding="UTF-8" standalone="no"?>
<!DOCTYPE svg PUBLIC "-//W3C//DTD SVG 1.1//EN" "http://www.w3.org/Graphics/SVG/1.1/DTD/svg11.dtd">
<svg width="100%" height="100%" viewBox="0 0 2560 1440" version="1.1" xmlns="http://www.w3.org/2000/svg" xmlns:xlink="http://www.w3.org/1999/xlink" xml:space="preserve" xmlns:serif="http://www.serif.com/" style="fill-rule:evenodd;clip-rule:evenodd;stroke-linecap:round;stroke-linejoin:round;stroke-miterlimit:1.5;">
    <g>
        <rect x="0" y="0" width="2560" height="1440" style="fill:rgb(187,187,187);"/>
        <g id="pokeball" transform="matrix(0.810516,-0.467952,0.467952,0.810516,135.726,735.431)">
            <g transform="matrix(1.03128,0,0,1.03128,13.0597,-45.0445)">
                <circle cx="1228.51" cy="741.839" r="698.161" style="fill:rgb(223,223,223);stroke:rgb(87,87,87);stroke-width:19.43px;"/>
            </g>
            <g transform="matrix(1.03128,0,0,1.03128,13.0597,-45.0445)">
                <circle cx="1228.51" cy="741.839" r="698.161" style="fill:rgb(223,223,223);stroke:rgb(87,87,87);stroke-width:19.43px;"/>
            </g>
            <g transform="matrix(-1,-1.22465e-16,1.22465e-16,-1,2560,1440)">
                <path d="M560,720C560,490.161 2000,490.161 2000,720C2000,1236.39 1520,1440 1280,1440C1021.25,1440 560,1234.48 560,720Z" style="fill:rgb(255,93,78);stroke:rgb(87,87,87);stroke-width:20.03px;"/>
            </g>
            <path d="M560.24,701.25C565.193,701.25 798.455,838.409 1280,838.409C1785.57,838.409 1987.74,701.25 1999.76,701.25C2002.33,701.25 1992.11,836.589 1990.29,838.409C1919.61,909.089 1560.51,958.748 1280,958.748C1043.24,958.748 659.798,928.499 569.708,838.409C565.583,834.284 558.343,701.25 560.24,701.25Z" style="fill:rgb(87,87,87);stroke:rgb(87,87,87);stroke-width:20.03px;"/>
            <g transform="matrix(1.20985,0,0,1.20985,-322.995,-195.924)">
                <circle cx="1324.96" cy="898.711" r="157.152" style="fill:rgb(223,223,223);stroke:rgb(87,87,87);stroke-width:16.56px;"/>
            </g>
            <g transform="matrix(0.682661,0,0,0.682661,375.503,277.864)">
                <circle cx="1324.96" cy="898.711" r="157.152" style="fill:rgb(223,223,223);stroke:rgb(87,87,87);stroke-width:29.35px;"/>
            </g>
        </g>
        <g transform="matrix(2.70598,0,0,2.70598,973.754,717.39)">
            <g transform="matrix(1,0,0,1,-236.5,-250)">
                <g transform="matrix(1,0,0,1,-12.4992,-0.537293)">
                    <g id="leaves">
                        <path d="M19.961,1.057C21.095,2.19 60.815,25.495 62.391,65.803C63.185,86.1 64.01,108.154 62.391,126.8C61.651,135.327 62.245,147.624 69.121,157.656C87.881,185.028 102.841,193.945 114.306,202.336C115.112,202.925 126.018,208.001 137.913,208.001C138.701,208.001 155.071,174.359 155.132,173.574C156.024,161.985 150.515,122.311 137.913,101.095C130.812,89.142 117.433,70.786 105.632,53.41C96.076,39.341 87.924,25.728 82.065,18.146C77.611,12.382 65.799,9.166 62.391,8.632C51.785,6.969 19.547,0.643 19.961,1.057Z" style="fill:rgb(140,196,71);stroke:black;stroke-width:1px;"/>
                        <path d="M273.384,21.387C273.099,21.387 264.66,24.907 254.102,26.888C247.989,28.035 236.418,28.865 231.417,30.17C212.507,35.104 190.967,39.017 168.133,60.786C156.17,72.192 147.575,85.731 138.85,100.805C138.529,101.36 155.206,142.743 155.206,172.128C155.206,172.984 177.517,138.283 189.167,123.989C206.336,102.924 231.054,92.159 231.417,91.377C239.05,74.892 249.572,61.489 260.832,48.738C271.779,36.343 273.878,21.387 273.384,21.387Z" style="fill:rgb(140,196,71);stroke:black;stroke-width:1px;"/>
                        <path d="M412.956,123.989C413.437,123.989 426.542,93.077 425.416,56.473C425.233,50.532 417.732,44.24 412.956,43.092C408.39,41.995 370.389,44.832 323.411,56.473C286.585,65.598 249.982,83.555 230.336,91.591C214.136,98.216 195.783,115.185 177.656,139.329C162.747,159.185 137.814,207.36 137.814,208.358C137.814,208.483 147.674,211.099 157.392,214.808C167.521,218.674 177.526,223.637 177.656,223.62C204.047,220.146 283.437,203.292 296.163,187.51C321.537,156.044 369.673,92.177 401.428,74.952C403.878,73.623 412.475,123.989 412.956,123.989Z" style="fill:rgb(140,196,71);stroke:black;stroke-width:1px;"/>
                        <path d="M484.724,177.069C478.618,170.92 446.213,147.982 412.956,138.035C390.203,131.23 343.27,129.804 342.054,131.019C327.723,145.35 299.709,182.588 299.874,182.753C299.967,182.846 320.438,175.432 342.054,172.144C358.689,169.613 376.003,170.744 385.228,172.144C391.508,173.097 413.805,187.521 416.624,187.521C419.444,187.521 436.272,176.974 449.595,174.927C460.945,173.184 485.188,177.536 484.724,177.069Z" style="fill:rgb(140,196,71);stroke:black;stroke-width:1px;"/>
                        <path d="M477.4,239.929C477.911,239.418 465.79,210.606 444.045,198.14C441.311,196.573 431.204,194.583 416.624,187.521C404.31,181.557 392.176,174.18 385.393,172.287C370.206,168.049 352.116,171.11 337.962,172.816C324.872,174.393 312.106,177.554 300.46,182.45C299.462,182.87 295.327,193.703 268.085,202.194C258.318,205.238 238.046,211.558 219.076,215.819C198.312,220.483 178.162,223.113 177.655,223.621C177.148,224.128 194.507,236.415 201.971,240.812C205.217,242.724 218.884,248.754 222.44,250C236.958,255.086 268.762,267.322 289.078,271.328C307.173,274.896 326.583,279.014 344.341,274.035C367.778,267.464 407.519,237.583 429.696,231.899C445.316,227.895 476.889,240.44 477.4,239.929Z" style="fill:rgb(140,196,71);stroke:black;stroke-width:1px;"/>
                    </g>
                    <g id="leavesShadows">
                        <path d="M298.627,185.555C384.196,190.072 319.3,260.776 281.62,269.13C281.515,269.153 276.353,267.846 269.379,265.687C261.968,263.392 252.483,260.154 243.899,257.197C232.197,253.166 222.333,249.403 222.191,249.34C222.002,249.256 217.653,245.346 212.424,241.355C208.129,238.076 202.793,235.253 199.7,233.288C193.694,229.472 180.22,223.558 181.475,223.366C196.376,221.096 228.847,214.318 256.148,206.351C259.263,205.442 261.4,204.791 263.492,204.149C264.562,203.82 265.645,203.509 266.791,203.134C277.514,199.619 283.822,196.545 287.972,194.174C292.434,191.623 294.333,189.885 296.047,188.286C297.844,186.609 298.546,185.551 298.627,185.555Z" style="fill:rgb(100,153,73);"/>
                        <path d="M334.972,139.329C349.904,136.342 364.472,154.735 361.96,169.753C361.929,169.937 343.487,170.995 329.195,173.619C312.821,176.625 301.606,181.732 301.467,181.573C301.205,181.273 333.441,139.635 334.972,139.329Z" style="fill:rgb(100,153,73);"/>
                        <path d="M208.635,106.219C240.707,92.866 329.022,91.335 256.233,205.19C255.826,205.826 241.888,209.913 225.975,213.776C205.884,218.652 182.527,222.909 179.792,222.771C179.148,222.739 167.701,217.848 156.778,213.634C147.529,210.065 139.016,207.464 139.016,206.918C139.016,206.372 150.777,182.632 165.837,158.177C167.804,154.982 169.695,151.665 171.852,148.414C175.344,143.153 179.231,137.988 183.014,133.214C194.66,118.518 206.201,107.232 208.635,106.219Z" style="fill:rgb(100,153,73);"/>
                        <path d="M139.412,100.869C143.567,96.714 202.513,65.33 205.181,107.589C205.206,107.989 191.786,119.835 180.287,134.935C167.322,151.958 155.999,173.903 155.68,173.584C155.56,173.464 155.566,170.692 155.196,166.331C154.625,159.583 153.353,149.023 150.861,138.528C146.476,120.061 139.087,101.194 139.412,100.869Z" style="fill:rgb(100,153,73);"/>
                        <path d="M80.116,171.353C79.87,170.863 77.211,139.875 83.53,108.085C89.069,80.221 115.35,76.252 137.552,101.24C137.816,101.538 138.892,103.246 140.143,106.315C141.767,110.297 143.97,117.101 146.477,125.534C148.729,133.112 151.304,142.016 152.596,151.167C153.578,158.119 155.538,166.64 154.625,173.517C154.438,174.929 153.821,176.209 153.391,177.46C153.056,178.436 140.642,200.802 139.723,203.367C139.643,203.59 137.789,207.102 137.552,207.096C136.727,207.073 130.246,204.715 123.905,203.367C119.05,202.335 114.529,202.552 114.327,202.351C113.833,201.856 106.632,196.694 99.137,190.461C90.859,183.578 82.151,175.414 80.116,171.353Z" style="fill:rgb(100,153,73);"/>
                    </g>
                    <g id="body">
                        <path id="body1" serif:id="body" d="M114.306,202.336C92.739,205.323 62.645,217.27 45.761,232.221C28.877,247.171 13.151,266.363 13,292.039C12.82,322.63 44.073,363.971 73.672,378.313C78.662,380.731 83.243,383.036 87.577,385.189C101.06,391.89 112.148,397.117 125.721,399.682C143.656,403.071 168.533,401.922 181.28,398.649C218.589,389.068 235.893,367.062 241.642,341.997C249.914,305.939 235.876,266.872 221.831,249.777C204.527,228.716 127.494,200.509 114.306,202.336Z" style="fill:rgb(90,144,204);stroke:black;stroke-width:1px;"/>
                        <path d="M204.04,235.828C203.56,237.635 220.851,293.746 197.839,331.829C181.491,358.884 160.889,361.646 125.177,357.589C102.836,355.05 69.255,336.157 52.33,331.829C46.845,330.426 38.82,330.001 35.344,331.829C33.33,332.889 29.422,337.925 29.785,338.694C33.386,346.303 55.857,368.329 68.683,375.068C85.673,383.996 101.818,393.66 124.398,399.035C144.168,403.742 182.496,399.212 192.175,395.329C221.398,383.606 238.114,362.182 241.959,338.694C250.195,288.383 225.165,252.597 220.996,248.427C220.9,248.331 216.906,244.611 213.588,242.216C209.94,239.583 204.083,235.667 204.04,235.828Z" style="fill:rgb(44,91,161);"/>
                    </g>
                    <g id="leftFoot">
                        <path id="leftFoot1" serif:id="leftFoot" d="M73.797,379.425C68.253,379.425 53.838,401.506 51.876,409.799C48.378,424.579 42.291,448.616 52.659,468.068C57.616,477.369 75.142,478.838 84.113,471.286C97.666,459.877 105.83,444.364 110.688,428.836C111.408,426.534 113.792,399.977 110.688,396.109C110.358,395.698 100.644,391.12 91.55,387.152C82.623,383.257 74.316,379.425 73.797,379.425Z" style="fill:rgb(90,144,204);stroke:black;stroke-width:1px;"/>
                        <path d="M52.546,409.956C52.549,410.585 65.958,410.736 75.029,419.808C92.431,437.21 91.321,463.6 91.777,463.102C100.939,453.086 107.937,440.028 110.203,428.642C112.2,418.61 112.443,404.495 110.649,396.076C110.623,395.951 101.126,392.089 91.777,387.823C83.044,383.838 74.44,379.425 73.797,379.425C68.482,379.425 52.527,404.101 52.546,409.956Z" style="fill:rgb(44,91,161);"/>
                    </g>
                    <g id="rightFoot">
                        <path id="rightFoot1" serif:id="rightFoot" d="M181.28,398.649C187.751,405.12 193,426.575 192.067,441.167C191.099,456.308 184.801,481.925 175.472,489.495C158.187,503.521 147.891,502.578 137.096,487.796C130.345,478.551 128.849,455.797 131.086,437.076C132.669,423.84 141.11,403.711 143.902,401.573C144.388,401.201 154.412,401.37 163.202,400.636C172.607,399.85 180.817,398.186 181.28,398.649Z" style="fill:rgb(90,144,204);stroke:black;stroke-width:1px;"/>
                        <path d="M143.902,401.573C141.016,404.459 137.054,415.294 134.437,424.278C132.617,430.526 131.541,435.86 131.541,437.082C131.541,437.334 152.386,435.787 162.524,450.392C172.029,464.087 176.408,488.031 176.802,487.656C184.508,480.336 192.666,452.182 191.564,433.743C190.524,416.354 184.471,402.242 180.798,398.569C180.624,398.394 170.671,400.461 161.147,401.251C152.424,401.975 144.062,401.413 143.902,401.573Z" style="fill:rgb(44,91,161);"/>
                    </g>
                    <g id="mouth">
                        <path id="mouth1" serif:id="mouth" d="M99.898,272.503C99.966,272.402 105.391,275.526 112.242,277.379C119.039,279.218 127.281,279.801 127.321,279.915C128.718,283.883 124.066,297.527 119.088,307.328C117.645,310.169 115.929,312.425 114.629,314.353C109.474,321.996 98.421,321.429 97.187,310.622C96.551,305.045 99.697,272.8 99.898,272.503Z" style="fill:rgb(66,0,0);stroke:black;stroke-width:1px;"/>
                        <path id="tongue" d="M108.549,276.758C109.31,276.645 113.228,277.811 117.308,278.507C122.192,279.341 127.295,279.755 127.321,279.915C128.335,286.181 119.766,309.349 114.629,314.353C109.759,319.097 101.729,323.809 97.187,310.622C96.684,309.16 98.687,288.009 99.179,286.543C100.615,282.261 105.971,277.138 108.549,276.758Z" style="fill:rgb(255,126,184);stroke:black;stroke-width:1px;"/>
                    </g>
                    <g id="leftEye">
                        <path id="leftEye1" serif:id="leftEye" d="M83.34,242.426C78.583,242.445 76.299,246.777 76.371,250C76.427,252.503 77.452,257.027 83.34,257.449C86.405,257.668 90.299,254.755 90.386,250C90.432,247.497 88.789,242.404 83.34,242.426Z" style="fill:rgb(210,80,108);stroke:black;stroke-width:1px;"/>
                        <g id="leftEye2" serif:id="leftEye" transform="matrix(0.839657,0,0,0.734578,13.7395,64.8938)">
                            <path d="M83.34,242.426C78.583,242.445 76.299,246.777 76.371,250C76.427,252.503 77.452,257.027 83.34,257.449C86.405,257.668 90.299,254.755 90.386,250C90.432,247.497 88.789,242.404 83.34,242.426Z" style="fill:rgb(223,223,223);"/>
                        </g>
                    </g>
                    <g id="rightEye">
                        <path id="rightEye1" serif:id="rightEye" d="M163.007,267.935C158.288,267.744 155.452,271.385 155.132,274.887C154.863,277.833 157.051,282.745 161.577,282.79C165.946,282.833 168.653,280.376 169.262,276.758C169.892,273.021 168.371,268.153 163.007,267.935Z" style="fill:rgb(210,80,108);stroke:black;stroke-width:1px;"/>
                        <g id="rightEye2" serif:id="rightEye" transform="matrix(0.868073,0,0,0.793435,21.5483,55.7592)">
                            <path d="M163.007,267.935C158.288,267.744 155.452,271.385 155.132,274.887C154.863,277.833 157.051,282.745 161.577,282.79C165.946,282.833 168.653,280.376 169.262,276.758C169.892,273.021 168.371,268.153 163.007,267.935Z" style="fill:rgb(223,223,223);"/>
                        </g>
                    </g>
                    <g id="leavesDetails">
                        <path d="M199.7,233.288C226.772,223.595 267.472,207.127 324.356,202.251C338.734,201.019 370.525,206.62 424.541,208.187C432.362,208.413 445.526,217.627 452.107,222.234" style="fill:none;stroke:black;stroke-width:1px;"/>
                        <path d="M307.89,172.079C336.437,163.432 403.8,144.87 453.055,164.727" style="fill:none;stroke:black;stroke-width:1px;"/>
                        <path d="M154.001,212.596C225.787,123.336 293.849,81.017 389.865,56.417" style="fill:none;stroke:black;stroke-width:1px;"/>
                        <path d="M153.406,152.813C174.783,101.119 208.002,50.255 256.121,35.463" style="fill:none;stroke:black;stroke-width:1px;"/>
                        <path d="M138.247,207.222C138.598,206.35 139.3,204.604 139.328,203.224C139.582,190.886 114.041,77.745 56.332,15.129" style="fill:none;stroke:black;stroke-width:1px;"/>
                        <path d="M401.571,74.931C403.852,73.001 407.594,70.727 412.113,68.79" style="fill:none;stroke:black;stroke-width:1px;"/>
                    </g>
                </g>
            </g>
        </g>
        <g transform="matrix(6.88482,0,0,6.88482,-1800.21,-7201.14)">
            <path d="M268.375,1093.3C270.345,1092.65 272.196,1092.05 273.929,1091.5C275.663,1090.94 277.49,1090.42 279.41,1089.92C281.331,1089.43 283.17,1089.03 284.928,1088.74C286.279,1088.51 287.662,1088.4 289.078,1088.4C291.438,1088.4 292.985,1088.46 293.717,1088.59C294.824,1088.8 295.87,1089.14 296.854,1089.62C297.839,1090.09 298.718,1090.72 299.491,1091.51C300.264,1092.3 300.895,1093.23 301.383,1094.31C301.578,1094.74 301.676,1095.21 301.676,1095.7C301.676,1097.52 300.679,1099.77 298.685,1102.43C296.691,1105.1 294.689,1107.43 292.679,1109.42C290.669,1111.4 289.168,1112.83 288.175,1113.69L292.57,1129.1L286.173,1133.71L274.967,1101.7C274.934,1101.7 274.78,1101.86 274.503,1102.17C274.226,1102.48 273.864,1102.88 273.417,1103.37C272.969,1103.87 272.688,1104.18 272.574,1104.29C272.526,1104.29 272.367,1103.94 272.098,1103.24C271.83,1102.54 271.472,1101.57 271.024,1100.32C270.577,1099.08 270.072,1097.69 269.51,1096.17C268.949,1094.65 268.571,1093.69 268.375,1093.3ZM284.171,1100.09L286.173,1107.29C287.182,1106.27 288.435,1104.87 289.933,1103.09C291.43,1101.32 292.179,1100.03 292.179,1099.24C292.179,1098.93 292.049,1098.75 291.788,1098.7C291.056,1098.54 290.332,1098.45 289.615,1098.45C287.467,1098.45 285.652,1099 284.171,1100.09Z" style="fill:rgb(255,202,57);fill-rule:nonzero;stroke:rgb(42,87,147);stroke-width:2.42px;stroke-linecap:butt;stroke-miterlimit:2;"/>
            <path d="M320.011,1105.66C321.167,1106.28 322.106,1107.11 322.831,1108.16C323.555,1109.21 324.084,1110.39 324.418,1111.7C324.751,1113.01 324.918,1114.37 324.918,1115.79C324.918,1116.96 324.825,1118.09 324.637,1119.18C324.45,1120.27 324.194,1121.27 323.868,1122.18C323.543,1123.1 323.16,1123.87 322.721,1124.51C321.696,1126.04 320.597,1127.35 319.425,1128.46C318.253,1129.57 317.057,1130.46 315.836,1131.13C314.615,1131.81 313.407,1132.31 312.211,1132.62C311.014,1132.94 309.83,1133.1 308.658,1133.1C307.275,1133.1 305.961,1132.88 304.716,1132.45C303.47,1132.02 302.408,1131.45 301.529,1130.76C300.081,1129.55 298.95,1127.93 298.136,1125.88C297.322,1123.84 296.915,1121.68 296.915,1119.4C296.915,1115.48 298.046,1112.31 300.309,1109.9C302.246,1107.84 304.248,1106.28 306.315,1105.23C308.382,1104.18 310.498,1103.65 312.662,1103.65C313.932,1103.65 315.153,1103.81 316.324,1104.13C317.496,1104.45 318.725,1104.96 320.011,1105.66ZM318.571,1109.76C318.294,1111 317.696,1112.09 316.776,1113.03C315.856,1113.97 314.957,1114.45 314.078,1114.45C313.639,1114.45 313.248,1114.33 312.906,1114.1C312.418,1113.71 312.174,1113.03 312.174,1112.05C312.174,1111.31 312.422,1110.56 312.919,1109.83C313.415,1109.1 314.2,1108.52 315.275,1108.1C314.2,1108.1 313.163,1108.3 312.162,1108.71C311.161,1109.12 310.302,1109.64 309.586,1110.28C308.87,1110.93 308.296,1111.65 307.865,1112.46C307.434,1113.26 307.218,1114.07 307.218,1114.89C307.218,1116.4 307.918,1117.6 309.318,1118.5C310.62,1119.33 311.857,1119.74 313.029,1119.74C314.184,1119.74 315.21,1119.36 316.105,1118.58C317,1117.81 317.683,1116.82 318.155,1115.61C318.627,1114.39 318.863,1113.19 318.863,1112.01C318.863,1111.19 318.766,1110.44 318.571,1109.76Z" style="fill:rgb(255,202,57);fill-rule:nonzero;stroke:rgb(42,87,147);stroke-width:2.42px;stroke-linecap:butt;stroke-miterlimit:2;"/>
            <path d="M320.865,1091.3L333.268,1086.1L335.074,1114.3L345.279,1108.71L355.875,1110.3L342.057,1120.89L355.07,1130.71L355.655,1140.5L336.466,1126.7L337.076,1138.69L325.455,1138.91L323.258,1096.5L319.669,1097.31L320.865,1091.3Z" style="fill:rgb(255,202,57);fill-rule:nonzero;stroke:rgb(42,87,147);stroke-width:2.42px;stroke-linecap:butt;stroke-miterlimit:2;"/>
            <path d="M372.867,1118.6L378.751,1125.7C378.279,1127.07 377.16,1128.32 375.394,1129.46C373.628,1130.6 371.529,1131.5 369.095,1132.16C366.662,1132.82 364.233,1133.15 361.808,1133.15C359.659,1133.15 357.743,1132.86 356.058,1132.29C354.374,1131.72 353.076,1130.86 352.164,1129.7C350.585,1127.72 349.796,1125.18 349.796,1122.09C349.796,1119.65 350.24,1117.24 351.127,1114.87C352.014,1112.51 352.954,1110.85 353.946,1109.9C355.135,1108.78 356.425,1107.85 357.816,1107.1C359.208,1106.35 360.652,1105.79 362.15,1105.41C363.647,1105.04 365.185,1104.85 366.764,1104.85C368.831,1104.85 370.796,1105.18 372.66,1105.84C374.523,1106.5 376.155,1107.46 377.555,1108.71L364.152,1124.7C365.34,1124.7 366.467,1124.45 367.533,1123.95C368.599,1123.46 369.58,1122.75 370.475,1121.83C371.37,1120.91 372.168,1119.83 372.867,1118.6ZM366.105,1112.91C365.307,1112.5 364.493,1112.3 363.663,1112.3C362.784,1112.3 361.934,1112.48 361.112,1112.84C360.29,1113.19 359.708,1113.62 359.366,1114.1C358.357,1115.41 357.853,1116.84 357.853,1118.4C357.853,1118.97 357.91,1119.52 358.024,1120.04C358.138,1120.56 358.333,1121.27 358.61,1122.18L366.105,1112.91ZM353.556,1095.31L366.569,1088.1L372.159,1096.7L356.363,1099.7L353.556,1095.31Z" style="fill:rgb(255,202,57);fill-rule:nonzero;stroke:rgb(42,87,147);stroke-width:2.42px;stroke-linecap:butt;stroke-miterlimit:2;"/>
            <path d="M386.368,1131.66L386.368,1132.49L375.358,1133.1L375.748,1096.5L372.159,1097.31L373.356,1091.3L385.758,1086.1L385.953,1103.34C387.793,1102.57 389.575,1102.19 391.3,1102.19C393.693,1102.19 396.158,1102.87 398.697,1104.24C400.39,1105.15 401.631,1106.52 402.421,1108.33C403.21,1110.14 403.605,1112.17 403.605,1114.4C403.605,1115.57 403.511,1116.7 403.324,1117.78C403.137,1118.86 402.88,1119.86 402.555,1120.77C402.229,1121.68 401.847,1122.45 401.407,1123.09C400.04,1125.11 398.563,1126.76 396.976,1128.05C395.389,1129.33 393.79,1130.26 392.179,1130.84C390.568,1131.42 388.964,1131.71 387.369,1131.71C387.207,1131.69 387.056,1131.68 386.918,1131.67C386.779,1131.66 386.596,1131.66 386.368,1131.66ZM386.1,1112.15L386.149,1114.74C386.425,1115.68 387.044,1116.47 388.004,1117.11C389.339,1117.94 390.576,1118.35 391.715,1118.35C392.871,1118.35 393.896,1117.97 394.791,1117.19C395.686,1116.42 396.37,1115.43 396.842,1114.21C397.314,1113 397.55,1111.79 397.55,1110.59C397.55,1109.81 397.452,1109.06 397.257,1108.34C396.964,1109.6 396.362,1110.69 395.45,1111.64C394.539,1112.58 393.644,1113.06 392.765,1113.06C392.309,1113.06 391.927,1112.93 391.617,1112.69C391.113,1112.33 390.861,1111.65 390.861,1110.64C390.861,1109.87 391.101,1109.13 391.581,1108.42C392.061,1107.7 392.854,1107.13 393.961,1106.71C392.724,1106.71 391.552,1106.96 390.446,1107.46C389.339,1107.97 388.407,1108.64 387.65,1109.48C386.893,1110.32 386.377,1111.21 386.1,1112.15Z" style="fill:rgb(255,202,57);fill-rule:nonzero;stroke:rgb(42,87,147);stroke-width:2.42px;stroke-linecap:butt;stroke-miterlimit:2;"/>
            <path d="M417.814,1108.2C416.918,1108.31 416.036,1108.6 415.165,1109.05C414.294,1109.51 413.549,1110.04 412.931,1110.66C412.312,1111.28 411.828,1111.96 411.478,1112.7C411.128,1113.44 410.953,1114.17 410.953,1114.89C410.953,1116.37 411.653,1117.57 413.053,1118.5C414.29,1119.33 415.543,1119.74 416.813,1119.74C417.057,1119.74 417.39,1119.71 417.814,1119.65L417.814,1114.45C417.374,1114.45 416.984,1114.33 416.642,1114.1C416.154,1113.71 415.909,1112.96 415.909,1111.86C415.909,1110.26 416.544,1109.04 417.814,1108.2ZM418.009,1103.9L428.214,1099.31L428.409,1112.96C428.54,1113.8 428.605,1114.76 428.605,1115.84C428.605,1116.78 428.572,1117.48 428.507,1117.94L428.8,1132.9L417.814,1133.49L417.814,1132C416.023,1132.73 414.217,1133.1 412.394,1133.1C410.994,1133.1 409.68,1132.89 408.451,1132.46C407.222,1132.04 406.16,1131.47 405.265,1130.76C403.816,1129.55 402.685,1127.93 401.871,1125.88C401.057,1123.84 400.651,1121.68 400.651,1119.4C400.651,1115.48 401.782,1112.31 404.044,1109.9C405.997,1107.85 408.011,1106.3 410.087,1105.24C412.162,1104.18 414.282,1103.65 416.446,1103.65C417.049,1103.65 417.504,1103.67 417.814,1103.7L418.009,1103.9Z" style="fill:rgb(255,202,57);fill-rule:nonzero;stroke:rgb(42,87,147);stroke-width:2.42px;stroke-linecap:butt;stroke-miterlimit:2;"/>
            <path d="M431.193,1089.3L441.862,1084.49L441.691,1100.9L449.65,1101.09L449.65,1110.49L441.398,1110.59C441.105,1112.9 440.958,1115.07 440.958,1117.11C440.958,1118.8 441.056,1120.2 441.251,1121.31C441.414,1122.22 441.821,1122.92 442.472,1123.41C443.123,1123.89 443.88,1124.14 444.742,1124.14C445.703,1124.14 446.545,1123.85 447.269,1123.28C447.994,1122.71 448.356,1121.93 448.356,1120.94C448.356,1120.79 448.323,1120.51 448.258,1120.09L456.241,1114.89C456.583,1115.52 457.01,1116.59 457.523,1118.08C458.036,1119.58 458.292,1121.22 458.292,1122.99C458.292,1125.12 457.731,1127.05 456.608,1128.78C455.485,1130.5 453.564,1131.81 450.846,1132.71C448.942,1133.33 447.143,1133.64 445.45,1133.64C442.895,1133.64 440.645,1133.07 438.7,1131.95C436.755,1130.83 435.14,1129.48 433.854,1127.9C433.252,1127.17 432.784,1125.95 432.45,1124.26C432.116,1122.57 431.901,1120.8 431.803,1118.96C431.705,1117.12 431.656,1115.28 431.656,1113.44L431.656,1110.69L424.454,1110.91L422.648,1099.89L431.754,1100.51L431.193,1089.3Z" style="fill:rgb(255,202,57);fill-rule:nonzero;stroke:rgb(42,87,147);stroke-width:2.42px;stroke-linecap:butt;stroke-miterlimit:2;"/>
            <path d="M462.443,1089.3L473.112,1084.49L472.941,1100.9L480.9,1101.09L480.9,1110.49L472.648,1110.59C472.355,1112.9 472.208,1115.07 472.208,1117.11C472.208,1118.8 472.306,1120.2 472.501,1121.31C472.664,1122.22 473.071,1122.92 473.722,1123.41C474.373,1123.89 475.13,1124.14 475.992,1124.14C476.953,1124.14 477.795,1123.85 478.519,1123.28C479.244,1122.71 479.606,1121.93 479.606,1120.94C479.606,1120.79 479.573,1120.51 479.508,1120.09L487.491,1114.89C487.833,1115.52 488.26,1116.59 488.773,1118.08C489.286,1119.58 489.542,1121.22 489.542,1122.99C489.542,1125.12 488.981,1127.05 487.858,1128.78C486.735,1130.5 484.814,1131.81 482.096,1132.71C480.192,1133.33 478.393,1133.64 476.7,1133.64C474.145,1133.64 471.895,1133.07 469.95,1131.95C468.005,1130.83 466.39,1129.48 465.104,1127.9C464.502,1127.17 464.034,1125.95 463.7,1124.26C463.366,1122.57 463.151,1120.8 463.053,1118.96C462.955,1117.12 462.906,1115.28 462.906,1113.44L462.906,1110.69L455.704,1110.91L453.898,1099.89L463.004,1100.51L462.443,1089.3Z" style="fill:rgb(255,202,57);fill-rule:nonzero;stroke:rgb(42,87,147);stroke-width:2.42px;stroke-linecap:butt;stroke-miterlimit:2;"/>
            <path d="M502.701,1138.3L491.691,1138.91L489.493,1096.5L485.904,1097.31L487.101,1091.3L499.503,1086.1L502.701,1138.3Z" style="fill:rgb(255,202,57);fill-rule:nonzero;stroke:rgb(42,87,147);stroke-width:2.42px;stroke-linecap:butt;stroke-miterlimit:2;"/>
            <path d="M524.113,1118.6L529.996,1125.7C529.524,1127.07 528.405,1128.32 526.639,1129.46C524.873,1130.6 522.774,1131.5 520.341,1132.16C517.907,1132.82 515.478,1133.15 513.053,1133.15C510.904,1133.15 508.988,1132.86 507.303,1132.29C505.619,1131.72 504.321,1130.86 503.409,1129.7C501.831,1127.72 501.041,1125.18 501.041,1122.09C501.041,1119.65 501.485,1117.24 502.372,1114.87C503.259,1112.51 504.199,1110.85 505.192,1109.9C506.38,1108.78 507.67,1107.85 509.061,1107.1C510.453,1106.35 511.897,1105.79 513.395,1105.41C514.892,1105.04 516.43,1104.85 518.009,1104.85C520.076,1104.85 522.041,1105.18 523.905,1105.84C525.769,1106.5 527.4,1107.46 528.8,1108.71L515.397,1124.7C516.585,1124.7 517.712,1124.45 518.778,1123.95C519.844,1123.46 520.825,1122.75 521.72,1121.83C522.615,1120.91 523.413,1119.83 524.113,1118.6ZM517.35,1112.91C516.552,1112.5 515.738,1112.3 514.908,1112.3C514.029,1112.3 513.179,1112.48 512.357,1112.84C511.535,1113.19 510.953,1113.62 510.612,1114.1C509.602,1115.41 509.098,1116.84 509.098,1118.4C509.098,1118.97 509.155,1119.52 509.269,1120.04C509.383,1120.56 509.578,1121.27 509.855,1122.18L517.35,1112.91Z" style="fill:rgb(255,202,57);fill-rule:nonzero;stroke:rgb(42,87,147);stroke-width:2.42px;stroke-linecap:butt;stroke-miterlimit:2;"/>
            <path d="M548.697,1104.1C552.913,1102.76 556.046,1102.09 558.097,1102.09C559.724,1102.09 561.124,1102.43 562.296,1103.09C563.745,1103.92 565.307,1105.34 566.984,1107.34C568.66,1109.34 569.702,1111.2 570.109,1112.91C570.971,1116.38 571.403,1119.4 571.403,1121.99C571.403,1123.36 571.313,1124.79 571.134,1126.3C570.955,1127.81 570.678,1129.74 570.304,1132.1L560.099,1132.71C560.131,1131.89 560.148,1130.72 560.148,1129.19C560.148,1122.81 559.269,1117.38 557.511,1112.91C557.185,1112.11 556.803,1111.48 556.363,1111.03C555.924,1110.57 555.533,1110.35 555.192,1110.35C554.834,1110.35 554.654,1110.6 554.654,1111.1C554.654,1111.39 554.687,1111.65 554.752,1111.86C554.866,1112.12 554.98,1112.47 555.094,1112.91C555.973,1116.44 556.412,1119.47 556.412,1121.99C556.412,1123.23 556.331,1124.53 556.168,1125.88C556.005,1127.24 555.721,1129.31 555.314,1132.1L545.109,1132.71C545.141,1131.89 545.157,1130.72 545.157,1129.19C545.157,1122.8 544.27,1117.37 542.496,1112.91C542.285,1112.39 542.122,1111.84 542.008,1111.26C541.894,1110.68 541.813,1110.39 541.764,1110.39C541.699,1110.39 541.512,1110.78 541.202,1111.54C540.893,1112.31 540.559,1113.1 540.201,1113.91C539.957,1114.48 539.758,1115.13 539.603,1115.86C539.449,1116.6 539.335,1117.42 539.261,1118.33C539.188,1119.24 539.152,1120.31 539.152,1121.55C539.152,1124.06 539.298,1127.24 539.591,1131.1L527.604,1132.49C527.408,1131.06 527.229,1129.63 527.067,1128.22C526.904,1126.8 526.778,1125.49 526.688,1124.27C526.599,1123.06 526.554,1121.75 526.554,1120.35C526.554,1119.75 526.586,1118.88 526.652,1117.74L526.212,1103.51L535.807,1102.29L537.198,1103.9C539.77,1103.07 541.87,1102.65 543.497,1102.65C545.304,1102.65 547.037,1103.13 548.697,1104.1Z" style="fill:rgb(255,202,57);fill-rule:nonzero;stroke:rgb(42,87,147);stroke-width:2.42px;stroke-linecap:butt;stroke-miterlimit:2;"/>
            <path d="M591.251,1105.66C592.407,1106.28 593.347,1107.11 594.071,1108.16C594.795,1109.21 595.324,1110.39 595.658,1111.7C595.992,1113.01 596.158,1114.37 596.158,1115.79C596.158,1116.96 596.065,1118.09 595.878,1119.18C595.69,1120.27 595.434,1121.27 595.109,1122.18C594.783,1123.1 594.401,1123.87 593.961,1124.51C592.936,1126.04 591.837,1127.35 590.665,1128.46C589.493,1129.57 588.297,1130.46 587.076,1131.13C585.856,1131.81 584.647,1132.31 583.451,1132.62C582.255,1132.94 581.071,1133.1 579.899,1133.1C578.515,1133.1 577.201,1132.88 575.956,1132.45C574.711,1132.02 573.649,1131.45 572.77,1130.76C571.321,1129.55 570.19,1127.93 569.376,1125.88C568.562,1123.84 568.155,1121.68 568.155,1119.4C568.155,1115.48 569.287,1112.31 571.549,1109.9C573.486,1107.84 575.488,1106.28 577.555,1105.23C579.622,1104.18 581.738,1103.65 583.903,1103.65C585.172,1103.65 586.393,1103.81 587.565,1104.13C588.737,1104.45 589.965,1104.96 591.251,1105.66ZM589.811,1109.76C589.534,1111 588.936,1112.09 588.016,1113.03C587.097,1113.97 586.197,1114.45 585.319,1114.45C584.879,1114.45 584.488,1114.33 584.147,1114.1C583.658,1113.71 583.414,1113.03 583.414,1112.05C583.414,1111.31 583.662,1110.56 584.159,1109.83C584.655,1109.1 585.441,1108.52 586.515,1108.1C585.441,1108.1 584.403,1108.3 583.402,1108.71C582.401,1109.12 581.543,1109.64 580.826,1110.28C580.11,1110.93 579.536,1111.65 579.105,1112.46C578.674,1113.26 578.458,1114.07 578.458,1114.89C578.458,1116.4 579.158,1117.6 580.558,1118.5C581.86,1119.33 583.097,1119.74 584.269,1119.74C585.424,1119.74 586.45,1119.36 587.345,1118.58C588.24,1117.81 588.924,1116.82 589.396,1115.61C589.868,1114.39 590.104,1113.19 590.104,1112.01C590.104,1111.19 590.006,1110.44 589.811,1109.76Z" style="fill:rgb(255,202,57);fill-rule:nonzero;stroke:rgb(42,87,147);stroke-width:2.42px;stroke-linecap:butt;stroke-miterlimit:2;"/>
            <path d="M604.703,1103.9C606.51,1103.3 608.064,1102.84 609.366,1102.52C610.668,1102.2 611.914,1102.04 613.102,1102.04C614.697,1102.04 616.097,1102.39 617.301,1103.09C618.75,1103.92 620.312,1105.34 621.988,1107.34C623.665,1109.34 624.707,1111.2 625.113,1112.91C625.976,1116.38 626.407,1119.4 626.407,1121.99C626.407,1123.36 626.318,1124.79 626.139,1126.3C625.96,1127.81 625.683,1129.74 625.309,1132.1L615.104,1132.71C615.136,1131.89 615.153,1130.72 615.153,1129.19C615.153,1122.81 614.274,1117.38 612.516,1112.91C611.832,1111.23 611.165,1110.39 610.514,1110.39C609.668,1110.39 608.732,1111.57 607.706,1113.91C607.462,1114.48 607.263,1115.13 607.108,1115.86C606.953,1116.6 606.84,1117.42 606.766,1118.33C606.693,1119.24 606.656,1120.31 606.656,1121.55C606.656,1124.06 606.803,1127.24 607.096,1131.1L595.109,1132.49C594.913,1131.06 594.734,1129.63 594.571,1128.22C594.409,1126.8 594.283,1125.49 594.193,1124.27C594.104,1123.06 594.059,1121.75 594.059,1120.35C594.059,1119.75 594.091,1118.88 594.156,1117.74L593.717,1103.51L603.312,1102.29L604.703,1103.9Z" style="fill:rgb(255,202,57);fill-rule:nonzero;stroke:rgb(42,87,147);stroke-width:2.42px;stroke-linecap:butt;stroke-miterlimit:2;"/>
        </g>
        <g id="venetionBlinds">
            <g transform="matrix(1,0,0,1,-2.27374e-13,-45.469)">
                <path d="M0,53.365L2560,53.365" style="fill:none;stroke:rgb(116,116,116);stroke-width:0.42px;"/>
            </g>
            <g transform="matrix(1,0,0,1,-2.27374e-13,-36.469)">
                <path d="M0,53.365L2560,53.365" style="fill:none;stroke:rgb(116,116,116);stroke-width:0.42px;"/>
            </g>
            <g transform="matrix(1,0,0,1,-2.27374e-13,-28.469)">
                <path d="M0,53.365L2560,53.365" style="fill:none;stroke:rgb(116,116,116);stroke-width:0.42px;"/>
            </g>
            <g transform="matrix(1,0,0,1,-2.27374e-13,-19.469)">
                <path d="M0,53.365L2560,53.365" style="fill:none;stroke:rgb(116,116,116);stroke-width:0.42px;"/>
            </g>
            <g transform="matrix(1,0,0,1,-2.27374e-13,-11.469)">
                <path d="M0,53.365L2560,53.365" style="fill:none;stroke:rgb(116,116,116);stroke-width:0.42px;"/>
            </g>
            <g transform="matrix(1,0,0,1,-2.27374e-13,-2.46895)">
                <path d="M0,53.365L2560,53.365" style="fill:none;stroke:rgb(116,116,116);stroke-width:0.42px;"/>
            </g>
            <g transform="matrix(1,0,0,1,-2.27374e-13,5.53105)">
                <path d="M0,53.365L2560,53.365" style="fill:none;stroke:rgb(116,116,116);stroke-width:0.42px;"/>
            </g>
            <g transform="matrix(1,0,0,1,-2.27374e-13,14.531)">
                <path d="M0,53.365L2560,53.365" style="fill:none;stroke:rgb(116,116,116);stroke-width:0.42px;"/>
            </g>
            <g transform="matrix(1,0,0,1,-2.27374e-13,22.531)">
                <path d="M0,53.365L2560,53.365" style="fill:none;stroke:rgb(116,116,116);stroke-width:0.42px;"/>
            </g>
            <g transform="matrix(1,0,0,1,-2.27374e-13,31.531)">
                <path d="M0,53.365L2560,53.365" style="fill:none;stroke:rgb(116,116,116);stroke-width:0.42px;"/>
            </g>
            <g transform="matrix(1,0,0,1,-2.27374e-13,39.531)">
                <path d="M0,53.365L2560,53.365" style="fill:none;stroke:rgb(116,116,116);stroke-width:0.42px;"/>
            </g>
            <g transform="matrix(1,0,0,1,-2.27374e-13,48.531)">
                <path d="M0,53.365L2560,53.365" style="fill:none;stroke:rgb(116,116,116);stroke-width:0.42px;"/>
            </g>
            <g transform="matrix(1,0,0,1,-2.27374e-13,56.531)">
                <path d="M0,53.365L2560,53.365" style="fill:none;stroke:rgb(116,116,116);stroke-width:0.42px;"/>
            </g>
            <g transform="matrix(1,0,0,1,-2.27374e-13,65.531)">
                <path d="M0,53.365L2560,53.365" style="fill:none;stroke:rgb(116,116,116);stroke-width:0.42px;"/>
            </g>
            <g transform="matrix(1,0,0,1,-2.27374e-13,73.531)">
                <path d="M0,53.365L2560,53.365" style="fill:none;stroke:rgb(116,116,116);stroke-width:0.42px;"/>
            </g>
            <g transform="matrix(1,0,0,1,-2.27374e-13,82.531)">
                <path d="M0,53.365L2560,53.365" style="fill:none;stroke:rgb(116,116,116);stroke-width:0.42px;"/>
            </g>
            <g transform="matrix(1,0,0,1,-2.27374e-13,90.531)">
                <path d="M0,53.365L2560,53.365" style="fill:none;stroke:rgb(116,116,116);stroke-width:0.42px;"/>
            </g>
            <g transform="matrix(1,0,0,1,-2.27374e-13,99.531)">
                <path d="M0,53.365L2560,53.365" style="fill:none;stroke:rgb(116,116,116);stroke-width:0.42px;"/>
            </g>
            <g transform="matrix(1,0,0,1,-2.27374e-13,107.531)">
                <path d="M0,53.365L2560,53.365" style="fill:none;stroke:rgb(116,116,116);stroke-width:0.42px;"/>
            </g>
            <g transform="matrix(1,0,0,1,-2.27374e-13,116.531)">
                <path d="M0,53.365L2560,53.365" style="fill:none;stroke:rgb(116,116,116);stroke-width:0.42px;"/>
            </g>
            <g transform="matrix(1,0,0,1,-2.27374e-13,124.531)">
                <path d="M0,53.365L2560,53.365" style="fill:none;stroke:rgb(116,116,116);stroke-width:0.42px;"/>
            </g>
            <g transform="matrix(1,0,0,1,-2.27374e-13,133.531)">
                <path d="M0,53.365L2560,53.365" style="fill:none;stroke:rgb(116,116,116);stroke-width:0.42px;"/>
            </g>
            <g transform="matrix(1,0,0,1,-2.27374e-13,141.531)">
                <path d="M0,53.365L2560,53.365" style="fill:none;stroke:rgb(116,116,116);stroke-width:0.42px;"/>
            </g>
            <g transform="matrix(1,0,0,1,-2.27374e-13,150.531)">
                <path d="M0,53.365L2560,53.365" style="fill:none;stroke:rgb(116,116,116);stroke-width:0.42px;"/>
            </g>
            <g transform="matrix(1,0,0,1,-2.27374e-13,158.531)">
                <path d="M0,53.365L2560,53.365" style="fill:none;stroke:rgb(116,116,116);stroke-width:0.42px;"/>
            </g>
            <g transform="matrix(1,0,0,1,-2.27374e-13,167.531)">
                <path d="M0,53.365L2560,53.365" style="fill:none;stroke:rgb(116,116,116);stroke-width:0.42px;"/>
            </g>
            <g transform="matrix(1,0,0,1,-2.27374e-13,175.531)">
                <path d="M0,53.365L2560,53.365" style="fill:none;stroke:rgb(116,116,116);stroke-width:0.42px;"/>
            </g>
            <g transform="matrix(1,0,0,1,-2.27374e-13,184.531)">
                <path d="M0,53.365L2560,53.365" style="fill:none;stroke:rgb(116,116,116);stroke-width:0.42px;"/>
            </g>
            <g transform="matrix(1,0,0,1,-2.27374e-13,192.531)">
                <path d="M0,53.365L2560,53.365" style="fill:none;stroke:rgb(116,116,116);stroke-width:0.42px;"/>
            </g>
            <g transform="matrix(1,0,0,1,-2.27374e-13,201.531)">
                <path d="M0,53.365L2560,53.365" style="fill:none;stroke:rgb(116,116,116);stroke-width:0.42px;"/>
            </g>
            <g transform="matrix(1,0,0,1,-2.27374e-13,209.531)">
                <path d="M0,53.365L2560,53.365" style="fill:none;stroke:rgb(116,116,116);stroke-width:0.42px;"/>
            </g>
            <g transform="matrix(1,0,0,1,-2.27374e-13,218.531)">
                <path d="M0,53.365L2560,53.365" style="fill:none;stroke:rgb(116,116,116);stroke-width:0.42px;"/>
            </g>
            <g transform="matrix(1,0,0,1,-2.27374e-13,226.531)">
                <path d="M0,53.365L2560,53.365" style="fill:none;stroke:rgb(116,116,116);stroke-width:0.42px;"/>
            </g>
            <g transform="matrix(1,0,0,1,-2.27374e-13,235.531)">
                <path d="M0,53.365L2560,53.365" style="fill:none;stroke:rgb(116,116,116);stroke-width:0.42px;"/>
            </g>
            <g transform="matrix(1,0,0,1,-2.27374e-13,243.531)">
                <path d="M0,53.365L2560,53.365" style="fill:none;stroke:rgb(116,116,116);stroke-width:0.42px;"/>
            </g>
            <g transform="matrix(1,0,0,1,-2.27374e-13,252.531)">
                <path d="M0,53.365L2560,53.365" style="fill:none;stroke:rgb(116,116,116);stroke-width:0.42px;"/>
            </g>
            <g transform="matrix(1,0,0,1,-2.27374e-13,260.531)">
                <path d="M0,53.365L2560,53.365" style="fill:none;stroke:rgb(116,116,116);stroke-width:0.42px;"/>
            </g>
            <g transform="matrix(1,0,0,1,-2.27374e-13,269.531)">
                <path d="M0,53.365L2560,53.365" style="fill:none;stroke:rgb(116,116,116);stroke-width:0.42px;"/>
            </g>
            <g transform="matrix(1,0,0,1,-2.27374e-13,277.531)">
                <path d="M0,53.365L2560,53.365" style="fill:none;stroke:rgb(116,116,116);stroke-width:0.42px;"/>
            </g>
            <g transform="matrix(1,0,0,1,-2.27374e-13,286.531)">
                <path d="M0,53.365L2560,53.365" style="fill:none;stroke:rgb(116,116,116);stroke-width:0.42px;"/>
            </g>
            <g transform="matrix(1,0,0,1,-2.27374e-13,294.531)">
                <path d="M0,53.365L2560,53.365" style="fill:none;stroke:rgb(116,116,116);stroke-width:0.42px;"/>
            </g>
            <g transform="matrix(1,0,0,1,-2.27374e-13,303.531)">
                <path d="M0,53.365L2560,53.365" style="fill:none;stroke:rgb(116,116,116);stroke-width:0.42px;"/>
            </g>
            <g transform="matrix(1,0,0,1,-2.27374e-13,311.531)">
                <path d="M0,53.365L2560,53.365" style="fill:none;stroke:rgb(116,116,116);stroke-width:0.42px;"/>
            </g>
            <g transform="matrix(1,0,0,1,-2.27374e-13,320.531)">
                <path d="M0,53.365L2560,53.365" style="fill:none;stroke:rgb(116,116,116);stroke-width:0.42px;"/>
            </g>
            <g transform="matrix(1,0,0,1,-2.27374e-13,328.531)">
                <path d="M0,53.365L2560,53.365" style="fill:none;stroke:rgb(116,116,116);stroke-width:0.42px;"/>
            </g>
            <g transform="matrix(1,0,0,1,-2.27374e-13,337.531)">
                <path d="M0,53.365L2560,53.365" style="fill:none;stroke:rgb(116,116,116);stroke-width:0.42px;"/>
            </g>
            <g transform="matrix(1,0,0,1,-2.27374e-13,345.531)">
                <path d="M0,53.365L2560,53.365" style="fill:none;stroke:rgb(116,116,116);stroke-width:0.42px;"/>
            </g>
            <g transform="matrix(1,0,0,1,-2.27374e-13,354.531)">
                <path d="M0,53.365L2560,53.365" style="fill:none;stroke:rgb(116,116,116);stroke-width:0.42px;"/>
            </g>
            <g transform="matrix(1,0,0,1,-2.27374e-13,362.531)">
                <path d="M0,53.365L2560,53.365" style="fill:none;stroke:rgb(116,116,116);stroke-width:0.42px;"/>
            </g>
            <g transform="matrix(1,0,0,1,-2.27374e-13,371.531)">
                <path d="M0,53.365L2560,53.365" style="fill:none;stroke:rgb(116,116,116);stroke-width:0.42px;"/>
            </g>
            <g transform="matrix(1,0,0,1,-2.27374e-13,379.531)">
                <path d="M0,53.365L2560,53.365" style="fill:none;stroke:rgb(116,116,116);stroke-width:0.42px;"/>
            </g>
            <g transform="matrix(1,0,0,1,-2.27374e-13,388.531)">
                <path d="M0,53.365L2560,53.365" style="fill:none;stroke:rgb(116,116,116);stroke-width:0.42px;"/>
            </g>
            <g transform="matrix(1,0,0,1,-2.27374e-13,396.531)">
                <path d="M0,53.365L2560,53.365" style="fill:none;stroke:rgb(116,116,116);stroke-width:0.42px;"/>
            </g>
            <g transform="matrix(1,0,0,1,-2.27374e-13,405.531)">
                <path d="M0,53.365L2560,53.365" style="fill:none;stroke:rgb(116,116,116);stroke-width:0.42px;"/>
            </g>
            <g transform="matrix(1,0,0,1,-2.27374e-13,413.531)">
                <path d="M0,53.365L2560,53.365" style="fill:none;stroke:rgb(116,116,116);stroke-width:0.42px;"/>
            </g>
            <g transform="matrix(1,0,0,1,-2.27374e-13,422.531)">
                <path d="M0,53.365L2560,53.365" style="fill:none;stroke:rgb(116,116,116);stroke-width:0.42px;"/>
            </g>
            <g transform="matrix(1,0,0,1,-2.27374e-13,430.531)">
                <path d="M0,53.365L2560,53.365" style="fill:none;stroke:rgb(116,116,116);stroke-width:0.42px;"/>
            </g>
            <g transform="matrix(1,0,0,1,-2.27374e-13,439.531)">
                <path d="M0,53.365L2560,53.365" style="fill:none;stroke:rgb(116,116,116);stroke-width:0.42px;"/>
            </g>
            <g transform="matrix(1,0,0,1,-2.27374e-13,447.531)">
                <path d="M0,53.365L2560,53.365" style="fill:none;stroke:rgb(116,116,116);stroke-width:0.42px;"/>
            </g>
            <g transform="matrix(1,0,0,1,-2.27374e-13,456.531)">
                <path d="M0,53.365L2560,53.365" style="fill:none;stroke:rgb(116,116,116);stroke-width:0.42px;"/>
            </g>
            <g transform="matrix(1,0,0,1,-2.27374e-13,464.531)">
                <path d="M0,53.365L2560,53.365" style="fill:none;stroke:rgb(116,116,116);stroke-width:0.42px;"/>
            </g>
            <g transform="matrix(1,0,0,1,-2.27374e-13,473.531)">
                <path d="M0,53.365L2560,53.365" style="fill:none;stroke:rgb(116,116,116);stroke-width:0.42px;"/>
            </g>
            <g transform="matrix(1,0,0,1,-2.27374e-13,481.531)">
                <path d="M0,53.365L2560,53.365" style="fill:none;stroke:rgb(116,116,116);stroke-width:0.42px;"/>
            </g>
            <g transform="matrix(1,0,0,1,-2.27374e-13,490.531)">
                <path d="M0,53.365L2560,53.365" style="fill:none;stroke:rgb(116,116,116);stroke-width:0.42px;"/>
            </g>
            <g transform="matrix(1,0,0,1,-2.27374e-13,498.531)">
                <path d="M0,53.365L2560,53.365" style="fill:none;stroke:rgb(116,116,116);stroke-width:0.42px;"/>
            </g>
            <g transform="matrix(1,0,0,1,-2.27374e-13,507.531)">
                <path d="M0,53.365L2560,53.365" style="fill:none;stroke:rgb(116,116,116);stroke-width:0.42px;"/>
            </g>
            <g transform="matrix(1,0,0,1,-2.27374e-13,515.531)">
                <path d="M0,53.365L2560,53.365" style="fill:none;stroke:rgb(116,116,116);stroke-width:0.42px;"/>
            </g>
            <g transform="matrix(1,0,0,1,-2.27374e-13,524.531)">
                <path d="M0,53.365L2560,53.365" style="fill:none;stroke:rgb(116,116,116);stroke-width:0.42px;"/>
            </g>
            <g transform="matrix(1,0,0,1,-2.27374e-13,532.531)">
                <path d="M0,53.365L2560,53.365" style="fill:none;stroke:rgb(116,116,116);stroke-width:0.42px;"/>
            </g>
            <g transform="matrix(1,0,0,1,-2.27374e-13,541.531)">
                <path d="M0,53.365L2560,53.365" style="fill:none;stroke:rgb(116,116,116);stroke-width:0.42px;"/>
            </g>
            <g transform="matrix(1,0,0,1,-2.27374e-13,549.531)">
                <path d="M0,53.365L2560,53.365" style="fill:none;stroke:rgb(116,116,116);stroke-width:0.42px;"/>
            </g>
            <g transform="matrix(1,0,0,1,-2.27374e-13,558.531)">
                <path d="M0,53.365L2560,53.365" style="fill:none;stroke:rgb(116,116,116);stroke-width:0.42px;"/>
            </g>
            <g transform="matrix(1,0,0,1,-2.27374e-13,566.531)">
                <path d="M0,53.365L2560,53.365" style="fill:none;stroke:rgb(116,116,116);stroke-width:0.42px;"/>
            </g>
            <g transform="matrix(1,0,0,1,-2.27374e-13,575.531)">
                <path d="M0,53.365L2560,53.365" style="fill:none;stroke:rgb(116,116,116);stroke-width:0.42px;"/>
            </g>
            <g transform="matrix(1,0,0,1,-2.27374e-13,583.531)">
                <path d="M0,53.365L2560,53.365" style="fill:none;stroke:rgb(116,116,116);stroke-width:0.42px;"/>
            </g>
            <g transform="matrix(1,0,0,1,-2.27374e-13,592.531)">
                <path d="M0,53.365L2560,53.365" style="fill:none;stroke:rgb(116,116,116);stroke-width:0.42px;"/>
            </g>
            <g transform="matrix(1,0,0,1,-2.27374e-13,600.531)">
                <path d="M0,53.365L2560,53.365" style="fill:none;stroke:rgb(116,116,116);stroke-width:0.42px;"/>
            </g>
            <g transform="matrix(1,0,0,1,-2.27374e-13,609.531)">
                <path d="M0,53.365L2560,53.365" style="fill:none;stroke:rgb(116,116,116);stroke-width:0.42px;"/>
            </g>
            <g transform="matrix(1,0,0,1,-2.27374e-13,617.531)">
                <path d="M0,53.365L2560,53.365" style="fill:none;stroke:rgb(116,116,116);stroke-width:0.42px;"/>
            </g>
            <g transform="matrix(1,0,0,1,-2.27374e-13,626.531)">
                <path d="M0,53.365L2560,53.365" style="fill:none;stroke:rgb(116,116,116);stroke-width:0.42px;"/>
            </g>
            <g transform="matrix(1,0,0,1,-2.27374e-13,634.531)">
                <path d="M0,53.365L2560,53.365" style="fill:none;stroke:rgb(116,116,116);stroke-width:0.42px;"/>
            </g>
            <g transform="matrix(1,0,0,1,-2.27374e-13,643.531)">
                <path d="M0,53.365L2560,53.365" style="fill:none;stroke:rgb(116,116,116);stroke-width:0.42px;"/>
            </g>
            <g transform="matrix(1,0,0,1,-2.27374e-13,651.531)">
                <path d="M0,53.365L2560,53.365" style="fill:none;stroke:rgb(116,116,116);stroke-width:0.42px;"/>
            </g>
            <g transform="matrix(1,0,0,1,-2.27374e-13,660.531)">
                <path d="M0,53.365L2560,53.365" style="fill:none;stroke:rgb(116,116,116);stroke-width:0.42px;"/>
            </g>
            <g transform="matrix(1,0,0,1,-2.27374e-13,668.531)">
                <path d="M0,53.365L2560,53.365" style="fill:none;stroke:rgb(116,116,116);stroke-width:0.42px;"/>
            </g>
            <g transform="matrix(1,0,0,1,-2.27374e-13,677.531)">
                <path d="M0,53.365L2560,53.365" style="fill:none;stroke:rgb(116,116,116);stroke-width:0.42px;"/>
            </g>
            <g transform="matrix(1,0,0,1,-2.27374e-13,685.531)">
                <path d="M0,53.365L2560,53.365" style="fill:none;stroke:rgb(116,116,116);stroke-width:0.42px;"/>
            </g>
            <g transform="matrix(1,0,0,1,-2.27374e-13,694.531)">
                <path d="M0,53.365L2560,53.365" style="fill:none;stroke:rgb(116,116,116);stroke-width:0.42px;"/>
            </g>
            <g transform="matrix(1,0,0,1,-2.27374e-13,702.531)">
                <path d="M0,53.365L2560,53.365" style="fill:none;stroke:rgb(116,116,116);stroke-width:0.42px;"/>
            </g>
            <g transform="matrix(1,0,0,1,-2.27374e-13,711.531)">
                <path d="M0,53.365L2560,53.365" style="fill:none;stroke:rgb(116,116,116);stroke-width:0.42px;"/>
            </g>
            <g transform="matrix(1,0,0,1,-2.27374e-13,719.531)">
                <path d="M0,53.365L2560,53.365" style="fill:none;stroke:rgb(116,116,116);stroke-width:0.42px;"/>
            </g>
            <g transform="matrix(1,0,0,1,-2.27374e-13,728.531)">
                <path d="M0,53.365L2560,53.365" style="fill:none;stroke:rgb(116,116,116);stroke-width:0.42px;"/>
            </g>
            <g transform="matrix(1,0,0,1,-2.27374e-13,736.531)">
                <path d="M0,53.365L2560,53.365" style="fill:none;stroke:rgb(116,116,116);stroke-width:0.42px;"/>
            </g>
            <g transform="matrix(1,0,0,1,-2.27374e-13,745.531)">
                <path d="M0,53.365L2560,53.365" style="fill:none;stroke:rgb(116,116,116);stroke-width:0.42px;"/>
            </g>
            <g transform="matrix(1,0,0,1,-2.27374e-13,753.531)">
                <path d="M0,53.365L2560,53.365" style="fill:none;stroke:rgb(116,116,116);stroke-width:0.42px;"/>
            </g>
            <g transform="matrix(1,0,0,1,-2.27374e-13,762.531)">
                <path d="M0,53.365L2560,53.365" style="fill:none;stroke:rgb(116,116,116);stroke-width:0.42px;"/>
            </g>
            <g transform="matrix(1,0,0,1,-2.27374e-13,770.531)">
                <path d="M0,53.365L2560,53.365" style="fill:none;stroke:rgb(116,116,116);stroke-width:0.42px;"/>
            </g>
            <g transform="matrix(1,0,0,1,-2.27374e-13,779.531)">
                <path d="M0,53.365L2560,53.365" style="fill:none;stroke:rgb(116,116,116);stroke-width:0.42px;"/>
            </g>
            <g transform="matrix(1,0,0,1,-2.27374e-13,787.531)">
                <path d="M0,53.365L2560,53.365" style="fill:none;stroke:rgb(116,116,116);stroke-width:0.42px;"/>
            </g>
            <g transform="matrix(1,0,0,1,-2.27374e-13,796.531)">
                <path d="M0,53.365L2560,53.365" style="fill:none;stroke:rgb(116,116,116);stroke-width:0.42px;"/>
            </g>
            <g transform="matrix(1,0,0,1,-2.27374e-13,804.531)">
                <path d="M0,53.365L2560,53.365" style="fill:none;stroke:rgb(116,116,116);stroke-width:0.42px;"/>
            </g>
            <g transform="matrix(1,0,0,1,-2.27374e-13,813.531)">
                <path d="M0,53.365L2560,53.365" style="fill:none;stroke:rgb(116,116,116);stroke-width:0.42px;"/>
            </g>
            <g transform="matrix(1,0,0,1,-2.27374e-13,821.531)">
                <path d="M0,53.365L2560,53.365" style="fill:none;stroke:rgb(116,116,116);stroke-width:0.42px;"/>
            </g>
            <g transform="matrix(1,0,0,1,-2.27374e-13,830.531)">
                <path d="M0,53.365L2560,53.365" style="fill:none;stroke:rgb(116,116,116);stroke-width:0.42px;"/>
            </g>
            <g transform="matrix(1,0,0,1,-2.27374e-13,838.531)">
                <path d="M0,53.365L2560,53.365" style="fill:none;stroke:rgb(116,116,116);stroke-width:0.42px;"/>
            </g>
            <g transform="matrix(1,0,0,1,-2.27374e-13,847.531)">
                <path d="M0,53.365L2560,53.365" style="fill:none;stroke:rgb(116,116,116);stroke-width:0.42px;"/>
            </g>
            <g transform="matrix(1,0,0,1,-2.27374e-13,855.531)">
                <path d="M0,53.365L2560,53.365" style="fill:none;stroke:rgb(116,116,116);stroke-width:0.42px;"/>
            </g>
            <g transform="matrix(1,0,0,1,-2.27374e-13,864.531)">
                <path d="M0,53.365L2560,53.365" style="fill:none;stroke:rgb(116,116,116);stroke-width:0.42px;"/>
            </g>
            <g transform="matrix(1,0,0,1,-2.27374e-13,872.531)">
                <path d="M0,53.365L2560,53.365" style="fill:none;stroke:rgb(116,116,116);stroke-width:0.42px;"/>
            </g>
            <g transform="matrix(1,0,0,1,-2.27374e-13,881.531)">
                <path d="M0,53.365L2560,53.365" style="fill:none;stroke:rgb(116,116,116);stroke-width:0.42px;"/>
            </g>
            <g transform="matrix(1,0,0,1,-2.27374e-13,889.531)">
                <path d="M0,53.365L2560,53.365" style="fill:none;stroke:rgb(116,116,116);stroke-width:0.42px;"/>
            </g>
            <g transform="matrix(1,0,0,1,-2.27374e-13,898.531)">
                <path d="M0,53.365L2560,53.365" style="fill:none;stroke:rgb(116,116,116);stroke-width:0.42px;"/>
            </g>
            <g transform="matrix(1,0,0,1,-2.27374e-13,906.531)">
                <path d="M0,53.365L2560,53.365" style="fill:none;stroke:rgb(116,116,116);stroke-width:0.42px;"/>
            </g>
            <g transform="matrix(1,0,0,1,-2.27374e-13,915.531)">
                <path d="M0,53.365L2560,53.365" style="fill:none;stroke:rgb(116,116,116);stroke-width:0.42px;"/>
            </g>
            <g transform="matrix(1,0,0,1,-2.27374e-13,923.531)">
                <path d="M0,53.365L2560,53.365" style="fill:none;stroke:rgb(116,116,116);stroke-width:0.42px;"/>
            </g>
            <g transform="matrix(1,0,0,1,-2.27374e-13,932.531)">
                <path d="M0,53.365L2560,53.365" style="fill:none;stroke:rgb(116,116,116);stroke-width:0.42px;"/>
            </g>
            <g transform="matrix(1,0,0,1,-2.27374e-13,940.531)">
                <path d="M0,53.365L2560,53.365" style="fill:none;stroke:rgb(116,116,116);stroke-width:0.42px;"/>
            </g>
            <g transform="matrix(1,0,0,1,-2.27374e-13,949.531)">
                <path d="M0,53.365L2560,53.365" style="fill:none;stroke:rgb(116,116,116);stroke-width:0.42px;"/>
            </g>
            <g transform="matrix(1,0,0,1,-2.27374e-13,957.531)">
                <path d="M0,53.365L2560,53.365" style="fill:none;stroke:rgb(116,116,116);stroke-width:0.42px;"/>
            </g>
            <g transform="matrix(1,0,0,1,-2.27374e-13,966.531)">
                <path d="M0,53.365L2560,53.365" style="fill:none;stroke:rgb(116,116,116);stroke-width:0.42px;"/>
            </g>
            <g transform="matrix(1,0,0,1,-2.27374e-13,974.531)">
                <path d="M0,53.365L2560,53.365" style="fill:none;stroke:rgb(116,116,116);stroke-width:0.42px;"/>
            </g>
            <g transform="matrix(1,0,0,1,-2.27374e-13,983.531)">
                <path d="M0,53.365L2560,53.365" style="fill:none;stroke:rgb(116,116,116);stroke-width:0.42px;"/>
            </g>
            <g transform="matrix(1,0,0,1,-2.27374e-13,991.531)">
                <path d="M0,53.365L2560,53.365" style="fill:none;stroke:rgb(116,116,116);stroke-width:0.42px;"/>
            </g>
            <g transform="matrix(1,0,0,1,-2.27374e-13,1000.53)">
                <path d="M0,53.365L2560,53.365" style="fill:none;stroke:rgb(116,116,116);stroke-width:0.42px;"/>
            </g>
            <g transform="matrix(1,0,0,1,-2.27374e-13,1008.53)">
                <path d="M0,53.365L2560,53.365" style="fill:none;stroke:rgb(116,116,116);stroke-width:0.42px;"/>
            </g>
            <g transform="matrix(1,0,0,1,-2.27374e-13,1017.53)">
                <path d="M0,53.365L2560,53.365" style="fill:none;stroke:rgb(116,116,116);stroke-width:0.42px;"/>
            </g>
            <g transform="matrix(1,0,0,1,-2.27374e-13,1025.53)">
                <path d="M0,53.365L2560,53.365" style="fill:none;stroke:rgb(116,116,116);stroke-width:0.42px;"/>
            </g>
            <g transform="matrix(1,0,0,1,-2.27374e-13,1034.53)">
                <path d="M0,53.365L2560,53.365" style="fill:none;stroke:rgb(116,116,116);stroke-width:0.42px;"/>
            </g>
            <g transform="matrix(1,0,0,1,-2.27374e-13,1042.53)">
                <path d="M0,53.365L2560,53.365" style="fill:none;stroke:rgb(116,116,116);stroke-width:0.42px;"/>
            </g>
            <g transform="matrix(1,0,0,1,-2.27374e-13,1051.53)">
                <path d="M0,53.365L2560,53.365" style="fill:none;stroke:rgb(116,116,116);stroke-width:0.42px;"/>
            </g>
            <g transform="matrix(1,0,0,1,-2.27374e-13,1059.53)">
                <path d="M0,53.365L2560,53.365" style="fill:none;stroke:rgb(116,116,116);stroke-width:0.42px;"/>
            </g>
            <g transform="matrix(1,0,0,1,-2.27374e-13,1068.53)">
                <path d="M0,53.365L2560,53.365" style="fill:none;stroke:rgb(116,116,116);stroke-width:0.42px;"/>
            </g>
            <g transform="matrix(1,0,0,1,-2.27374e-13,1076.53)">
                <path d="M0,53.365L2560,53.365" style="fill:none;stroke:rgb(116,116,116);stroke-width:0.42px;"/>
            </g>
            <g transform="matrix(1,0,0,1,-2.27374e-13,1085.53)">
                <path d="M0,53.365L2560,53.365" style="fill:none;stroke:rgb(116,116,116);stroke-width:0.42px;"/>
            </g>
            <g transform="matrix(1,0,0,1,-2.27374e-13,1093.53)">
                <path d="M0,53.365L2560,53.365" style="fill:none;stroke:rgb(116,116,116);stroke-width:0.42px;"/>
            </g>
            <g transform="matrix(1,0,0,1,-2.27374e-13,1102.53)">
                <path d="M0,53.365L2560,53.365" style="fill:none;stroke:rgb(116,116,116);stroke-width:0.42px;"/>
            </g>
            <g transform="matrix(1,0,0,1,-2.27374e-13,1110.53)">
                <path d="M0,53.365L2560,53.365" style="fill:none;stroke:rgb(116,116,116);stroke-width:0.42px;"/>
            </g>
            <g transform="matrix(1,0,0,1,-2.27374e-13,1119.53)">
                <path d="M0,53.365L2560,53.365" style="fill:none;stroke:rgb(116,116,116);stroke-width:0.42px;"/>
            </g>
            <g transform="matrix(1,0,0,1,-2.27374e-13,1127.53)">
                <path d="M0,53.365L2560,53.365" style="fill:none;stroke:rgb(116,116,116);stroke-width:0.42px;"/>
            </g>
            <g transform="matrix(1,0,0,1,-2.27374e-13,1136.53)">
                <path d="M0,53.365L2560,53.365" style="fill:none;stroke:rgb(116,116,116);stroke-width:0.42px;"/>
            </g>
            <g transform="matrix(1,0,0,1,-2.27374e-13,1144.53)">
                <path d="M0,53.365L2560,53.365" style="fill:none;stroke:rgb(116,116,116);stroke-width:0.42px;"/>
            </g>
            <g transform="matrix(1,0,0,1,-2.27374e-13,1153.53)">
                <path d="M0,53.365L2560,53.365" style="fill:none;stroke:rgb(116,116,116);stroke-width:0.42px;"/>
            </g>
            <g transform="matrix(1,0,0,1,-2.27374e-13,1161.53)">
                <path d="M0,53.365L2560,53.365" style="fill:none;stroke:rgb(116,116,116);stroke-width:0.42px;"/>
            </g>
            <g transform="matrix(1,0,0,1,-2.27374e-13,1170.53)">
                <path d="M0,53.365L2560,53.365" style="fill:none;stroke:rgb(116,116,116);stroke-width:0.42px;"/>
            </g>
            <g transform="matrix(1,0,0,1,-2.27374e-13,1178.53)">
                <path d="M0,53.365L2560,53.365" style="fill:none;stroke:rgb(116,116,116);stroke-width:0.42px;"/>
            </g>
            <g transform="matrix(1,0,0,1,-2.27374e-13,1187.53)">
                <path d="M0,53.365L2560,53.365" style="fill:none;stroke:rgb(116,116,116);stroke-width:0.42px;"/>
            </g>
            <g transform="matrix(1,0,0,1,-2.27374e-13,1195.53)">
                <path d="M0,53.365L2560,53.365" style="fill:none;stroke:rgb(116,116,116);stroke-width:0.42px;"/>
            </g>
            <g transform="matrix(1,0,0,1,-2.27374e-13,1204.53)">
                <path d="M0,53.365L2560,53.365" style="fill:none;stroke:rgb(116,116,116);stroke-width:0.42px;"/>
            </g>
            <g transform="matrix(1,0,0,1,-2.27374e-13,1212.53)">
                <path d="M0,53.365L2560,53.365" style="fill:none;stroke:rgb(116,116,116);stroke-width:0.42px;"/>
            </g>
            <g transform="matrix(1,0,0,1,-2.27374e-13,1221.53)">
                <path d="M0,53.365L2560,53.365" style="fill:none;stroke:rgb(116,116,116);stroke-width:0.42px;"/>
            </g>
            <g transform="matrix(1,0,0,1,-2.27374e-13,1229.53)">
                <path d="M0,53.365L2560,53.365" style="fill:none;stroke:rgb(116,116,116);stroke-width:0.42px;"/>
            </g>
            <g transform="matrix(1,0,0,1,-2.27374e-13,1238.53)">
                <path d="M0,53.365L2560,53.365" style="fill:none;stroke:rgb(116,116,116);stroke-width:0.42px;"/>
            </g>
            <g transform="matrix(1,0,0,1,-2.27374e-13,1246.53)">
                <path d="M0,53.365L2560,53.365" style="fill:none;stroke:rgb(116,116,116);stroke-width:0.42px;"/>
            </g>
            <g transform="matrix(1,0,0,1,-2.27374e-13,1255.53)">
                <path d="M0,53.365L2560,53.365" style="fill:none;stroke:rgb(116,116,116);stroke-width:0.42px;"/>
            </g>
            <g transform="matrix(1,0,0,1,-2.27374e-13,1263.53)">
                <path d="M0,53.365L2560,53.365" style="fill:none;stroke:rgb(116,116,116);stroke-width:0.42px;"/>
            </g>
            <g transform="matrix(1,0,0,1,-2.27374e-13,1272.53)">
                <path d="M0,53.365L2560,53.365" style="fill:none;stroke:rgb(116,116,116);stroke-width:0.42px;"/>
            </g>
            <g transform="matrix(1,0,0,1,-2.27374e-13,1280.53)">
                <path d="M0,53.365L2560,53.365" style="fill:none;stroke:rgb(116,116,116);stroke-width:0.42px;"/>
            </g>
            <g transform="matrix(1,0,0,1,-2.27374e-13,1289.53)">
                <path d="M0,53.365L2560,53.365" style="fill:none;stroke:rgb(116,116,116);stroke-width:0.42px;"/>
            </g>
            <g transform="matrix(1,0,0,1,-2.27374e-13,1297.53)">
                <path d="M0,53.365L2560,53.365" style="fill:none;stroke:rgb(116,116,116);stroke-width:0.42px;"/>
            </g>
            <g transform="matrix(1,0,0,1,-2.27374e-13,1306.53)">
                <path d="M0,53.365L2560,53.365" style="fill:none;stroke:rgb(116,116,116);stroke-width:0.42px;"/>
            </g>
            <g transform="matrix(1,0,0,1,-2.27374e-13,1314.53)">
                <path d="M0,53.365L2560,53.365" style="fill:none;stroke:rgb(116,116,116);stroke-width:0.42px;"/>
            </g>
            <g transform="matrix(1,0,0,1,-2.27374e-13,1323.53)">
                <path d="M0,53.365L2560,53.365" style="fill:none;stroke:rgb(116,116,116);stroke-width:0.42px;"/>
            </g>
            <g transform="matrix(1,0,0,1,-2.27374e-13,1331.53)">
                <path d="M0,53.365L2560,53.365" style="fill:none;stroke:rgb(116,116,116);stroke-width:0.42px;"/>
            </g>
            <g transform="matrix(1,0,0,1,-2.27374e-13,1340.53)">
                <path d="M0,53.365L2560,53.365" style="fill:none;stroke:rgb(116,116,116);stroke-width:0.42px;"/>
            </g>
            <g transform="matrix(1,0,0,1,-2.27374e-13,1348.53)">
                <path d="M0,53.365L2560,53.365" style="fill:none;stroke:rgb(116,116,116);stroke-width:0.42px;"/>
            </g>
            <g transform="matrix(1,0,0,1,-2.27374e-13,1357.53)">
                <path d="M0,53.365L2560,53.365" style="fill:none;stroke:rgb(116,116,116);stroke-width:0.42px;"/>
            </g>
            <g transform="matrix(1,0,0,1,-2.27374e-13,1365.53)">
                <path d="M0,53.365L2560,53.365" style="fill:none;stroke:rgb(116,116,116);stroke-width:0.42px;"/>
            </g>
            <g transform="matrix(1,0,0,1,-2.27374e-13,1374.53)">
                <path d="M0,53.365L2560,53.365" style="fill:none;stroke:rgb(116,116,116);stroke-width:0.42px;"/>
            </g>
            <g transform="matrix(1,0,0,1,-2.27374e-13,1382.53)">
                <path d="M0,53.365L2560,53.365" style="fill:none;stroke:rgb(116,116,116);stroke-width:0.42px;"/>
            </g>
        </g>
    </g>
</svg>
